<svg width="129" height="131" viewBox="0 0 129 131" fill="none" xmlns="http://www.w3.org/2000/svg">
<path d="M9.26013 26.2213V52.8176C9.26013 58.546 13.7609 63.0471 19.4896 63.0471H25.6271C26.8547 63.0471 27.6729 63.8653 27.6729 65.0929V74.5039C27.6729 76.3453 29.9234 77.1635 31.1508 75.9359L40.9708 66.1158C42.8123 64.2744 45.4716 63.0471 48.1313 63.0471H64.4982C70.2266 63.0471 74.7277 58.5463 74.7277 52.8176V26.2213C74.7277 20.4929 70.2269 15.9918 64.4982 15.9918H19.4893C13.7609 15.9918 9.26013 20.6973 9.26013 26.2213Z" fill="#FFA000"/>
<path d="M29.731 77.5419C29.326 77.5419 28.9169 77.4621 28.5239 77.3004C27.3679 76.8216 26.65 75.7496 26.65 74.5036V65.0926C26.65 64.4338 26.2859 64.0697 25.6271 64.0697H19.4893C13.1798 64.0697 8.23694 59.1268 8.23694 52.8174V26.221C8.23694 20.0159 13.284 14.9686 19.4893 14.9686H64.4985C70.8059 14.9686 75.7508 19.9115 75.7508 26.221V52.8174C75.7508 59.1268 70.8079 64.0697 64.4985 64.0697H48.1315C45.8339 64.0697 43.4281 65.1049 41.6952 66.8399L31.8751 76.66C31.5932 76.9406 31.2587 77.163 30.8908 77.3143C30.5229 77.4656 30.1288 77.543 29.731 77.5419ZM19.4893 17.0147C14.4136 17.0147 10.2828 21.1453 10.2828 26.2212V52.8176C10.2828 57.9793 14.3274 62.0241 19.4893 62.0241H25.6268C27.4048 62.0241 28.6956 63.3152 28.6956 65.0929V74.5038C28.6956 75.0931 29.121 75.3344 29.3053 75.4101C29.6182 75.539 30.0808 75.5575 30.4264 75.2115L40.2465 65.3915C42.3558 63.2822 45.3017 62.0218 48.1313 62.0218H64.4982C69.6599 62.0218 73.7047 57.9772 73.7047 52.8153V26.2189C73.7047 21.0573 69.6601 17.0124 64.4982 17.0124H19.4893V17.0147Z" fill="#37474F"/>
<path d="M9.26013 18.0377V44.634C9.26013 50.3624 13.7609 54.8635 19.4896 54.8635H25.6271C26.8547 54.8635 27.6729 55.6817 27.6729 56.9093V66.3203C27.6729 68.1617 29.9234 68.9799 31.1508 67.7523L40.9708 57.9322C42.8123 56.0908 45.4716 54.8635 48.1313 54.8635H64.4982C70.2266 54.8635 74.7277 50.3627 74.7277 44.634V18.0379C74.7277 12.3095 70.2269 7.80847 64.4982 7.80847H19.4893C13.7609 7.80847 9.26013 12.5139 9.26013 18.0377Z" fill="#FFCA28"/>
<path d="M29.731 69.3583C29.326 69.3583 28.9169 69.2785 28.5239 69.1168C27.3679 68.638 26.65 67.566 26.65 66.32V56.909C26.65 56.2502 26.2859 55.8861 25.6271 55.8861H19.4893C13.1798 55.8861 8.23694 50.9432 8.23694 44.6338V18.0376C8.23694 11.8326 13.284 6.78528 19.4893 6.78528H64.4985C70.8059 6.78528 75.7508 11.7282 75.7508 18.0376V44.634C75.7508 50.9435 70.8079 55.8864 64.4985 55.8864H48.1315C45.8339 55.8864 43.4281 56.9216 41.6952 58.6565L31.8751 68.4766C31.5932 68.7572 31.2587 68.9795 30.8908 69.1308C30.5229 69.2821 30.1288 69.3594 29.731 69.3583ZM19.4893 8.83137C14.4136 8.83137 10.2828 12.9619 10.2828 18.0379V44.6343C10.2828 49.7959 14.3274 53.8408 19.4893 53.8408H25.6268C27.4048 53.8408 28.6956 55.1318 28.6956 56.9095V66.3205C28.6956 66.9097 29.121 67.151 29.3053 67.2267C29.6182 67.3557 30.0808 67.3741 30.4264 67.0282L40.2465 57.2081C42.3558 55.0988 45.3038 53.8405 48.1313 53.8405H64.4982C69.6599 53.8405 73.7047 49.7959 73.7047 44.634V18.0379C73.7047 12.8762 69.6601 8.83137 64.4982 8.83137H19.4893Z" fill="#37474F"/>
<path d="M13.3518 27.2443C13.0805 27.2442 12.8204 27.1364 12.6286 26.9446C12.4368 26.7528 12.329 26.4927 12.3289 26.2214V18.0377C12.3289 14.0238 15.4754 10.8772 19.4894 10.8772H27.6731C27.9443 10.8773 28.2044 10.9851 28.3962 11.177C28.588 11.3688 28.6959 11.6289 28.696 11.9001C28.6959 12.1714 28.588 12.4315 28.3962 12.6233C28.2044 12.8151 27.9443 12.9229 27.6731 12.9231H19.4894C16.5741 12.9231 14.3747 15.1224 14.3747 18.0377V26.2214C14.3749 26.3558 14.3485 26.4889 14.2971 26.613C14.2458 26.7372 14.1704 26.85 14.0754 26.945C13.9804 27.04 13.8676 27.1154 13.7434 27.1667C13.6192 27.2181 13.4862 27.2445 13.3518 27.2443Z" fill="#FFE082"/>
<path d="M119.737 73.2763V99.8727C119.737 105.601 115.236 110.102 109.508 110.102H103.37C102.143 110.102 101.324 110.92 101.324 112.148V121.559C101.324 123.4 99.0738 124.219 97.8464 122.991L88.0263 113.171C86.1849 111.329 83.5256 110.102 80.8659 110.102H64.499C58.7706 110.102 54.2695 105.601 54.2695 99.8727V73.2763C54.2695 67.5479 58.7703 63.0469 64.499 63.0469H109.508C115.236 63.0469 119.737 67.7523 119.737 73.2763Z" fill="#D32F2F"/>
<path d="M99.2679 124.597C98.474 124.597 97.7008 124.292 97.1239 123.713L87.3017 113.893C85.5688 112.158 83.165 111.123 80.8654 111.123H64.4984C58.189 111.123 53.2461 106.18 53.2461 99.8706V73.2742C53.2461 66.9648 58.189 62.0219 64.4984 62.0219H109.508C115.711 62.0219 120.76 67.0689 120.76 73.2742V99.8706C120.76 106.18 115.817 111.123 109.508 111.123H103.37C102.711 111.123 102.347 111.487 102.347 112.146V121.557C102.347 122.803 101.629 123.877 100.473 124.354C100.092 124.514 99.6819 124.596 99.2679 124.597ZM64.4984 64.0697C59.3368 64.0697 55.2919 68.1143 55.2919 73.2762V99.8726C55.2919 105.034 59.3365 109.079 64.4984 109.079H80.8654C83.6949 109.079 86.6429 110.337 88.7502 112.447L98.5723 122.267C98.9179 122.612 99.3803 122.594 99.6934 122.465C99.8756 122.39 100.303 122.15 100.303 121.559V112.148C100.303 110.342 101.566 109.079 103.372 109.079H109.509C114.671 109.079 118.716 105.035 118.716 99.8729V73.2765C118.716 68.2008 114.585 64.07 109.509 64.07L64.4984 64.0697Z" fill="#37474F"/>
<path d="M119.737 65.0927V91.689C119.737 97.4174 115.236 101.918 109.508 101.918H103.37C102.143 101.918 101.324 102.737 101.324 103.964V113.375C101.324 115.217 99.0738 116.035 97.8464 114.807L88.0263 104.987C86.1849 103.146 83.5256 101.918 80.8659 101.918H64.499C58.7706 101.918 54.2695 97.4177 54.2695 91.689V65.0927C54.2695 59.3643 58.7703 54.8632 64.499 54.8632H109.508C115.236 54.8635 119.737 59.569 119.737 65.0927Z" fill="#EF5350"/>
<path d="M99.2679 116.413C98.474 116.413 97.7008 116.109 97.1239 115.53L87.3017 105.71C85.5688 103.975 83.165 102.939 80.8654 102.939H64.4984C58.189 102.939 53.2461 97.9964 53.2461 91.687V65.0906C53.2461 58.7812 58.189 53.8383 64.4984 53.8383H109.508C115.711 53.8383 120.76 58.8853 120.76 65.0906V91.687C120.76 97.9964 115.817 102.939 109.508 102.939H103.37C102.711 102.939 102.347 103.303 102.347 103.962V113.373C102.347 114.619 101.629 115.693 100.473 116.17C100.092 116.33 99.6819 116.413 99.2679 116.413ZM64.4984 55.8864C59.3368 55.8864 55.2919 59.931 55.2919 65.0929V91.6893C55.2919 96.851 59.3365 100.896 64.4984 100.896H80.8654C83.6949 100.896 86.6429 102.154 88.7502 104.263L98.5723 114.083C98.9179 114.429 99.3803 114.411 99.6934 114.282C99.8756 114.206 100.303 113.967 100.303 113.376V103.965C100.303 102.158 101.566 100.896 103.372 100.896H109.509C114.671 100.896 118.716 96.8515 118.716 91.6895V65.0927C118.716 60.017 114.585 55.8861 109.509 55.8861L64.4984 55.8864Z" fill="#37474F"/>
<path d="M58.3609 74.2994C58.0897 74.2993 57.8296 74.1914 57.6378 73.9996C57.446 73.8078 57.3381 73.5477 57.338 73.2765V65.0928C57.338 61.0788 60.4846 57.9323 64.4985 57.9323H72.6822C72.9535 57.9324 73.2136 58.0402 73.4054 58.232C73.5972 58.4238 73.705 58.6839 73.7052 58.9552C73.705 59.2264 73.5972 59.4865 73.4054 59.6784C73.2136 59.8702 72.9535 59.978 72.6822 59.9781H64.4985C61.5832 59.9781 59.3839 62.1775 59.3839 65.0928V73.2762C59.384 73.4106 59.3577 73.5437 59.3064 73.6679C59.255 73.7921 59.1797 73.905 59.0847 74C58.9896 74.095 58.8768 74.1704 58.7526 74.2218C58.6284 74.2732 58.4953 74.2995 58.3609 74.2994Z" fill="#EF9A9A"/>
<path d="M101.938 89.4385L89.6626 64.888C89.0488 63.8651 88.0259 63.2513 87.0029 63.2513C85.98 63.2513 84.7524 63.8651 84.3433 64.888L72.068 89.4385C71.2498 90.8706 71.8633 92.712 73.5001 93.5302C74.9321 94.3485 76.7735 93.7349 77.5917 92.0982L79.8423 87.5974H94.3678L96.6183 92.0982C97.2321 93.1211 98.255 93.7349 99.278 93.7349C99.6871 93.7349 100.301 93.5302 100.71 93.3258C102.143 92.712 102.756 90.8708 101.938 89.4385ZM82.7068 81.4596L87.0032 73.0716L91.2996 81.4596H82.7068Z" fill="#ECEFF1"/>
<path d="M74.8528 94.9134C74.2062 94.9134 73.5678 94.7476 72.9932 94.4162C71.9785 93.913 71.1784 92.9883 70.8511 91.906C70.5464 90.8954 70.6608 89.8377 71.1784 88.9294L83.4271 64.43C83.9917 63.0103 85.6612 62.2266 87.0011 62.2266C88.3922 62.2266 89.7488 63.0427 90.5384 64.3584L102.84 88.9537C103.101 89.4209 103.261 89.9375 103.31 90.4703C103.359 91.003 103.296 91.5401 103.125 92.047C102.787 93.0515 102.055 93.8618 101.113 94.2648C100.686 94.4776 99.9043 94.7558 99.2782 94.7558C97.8851 94.7558 96.5305 93.9396 95.741 92.6199L93.7381 88.6183H80.4747L78.5087 92.5526C77.9747 93.6185 77.048 94.4183 75.9678 94.7458C75.5994 94.8602 75.225 94.9134 74.8528 94.9134ZM87.0032 64.2744C86.3689 64.2744 85.5323 64.6733 85.2928 65.2687L72.9827 89.8947C72.7187 90.3591 72.6677 90.846 72.8087 91.3124C72.9766 91.8669 73.3836 92.3272 73.9585 92.6137C74.4229 92.8778 74.9078 92.9287 75.3742 92.7898C75.9286 92.6219 76.3889 92.2148 76.6775 91.6379L78.9281 87.1391C79.0133 86.9696 79.1439 86.827 79.3053 86.7273C79.4668 86.6276 79.6527 86.5747 79.8425 86.5745H94.3703C94.7569 86.5745 95.111 86.7935 95.2848 87.1391L97.5353 91.6379C97.9198 92.2742 98.6012 92.7099 99.2805 92.7099C99.4545 92.7099 99.9004 92.5851 100.258 92.4093C100.719 92.2087 101.038 91.8508 101.191 91.3966C101.353 90.9118 101.304 90.3819 101.054 89.9441C101.046 89.9275 101.037 89.9111 101.027 89.895L88.7522 65.3444C88.3636 64.7102 87.6802 64.2744 87.0032 64.2744ZM91.3013 82.4828H82.7086C82.5334 82.4825 82.3612 82.4375 82.2083 82.3519C82.0554 82.2663 81.927 82.1431 81.8351 81.9939C81.7436 81.8447 81.692 81.6746 81.6852 81.4998C81.6784 81.3249 81.7166 81.1513 81.7962 80.9955L86.0926 72.6054C86.4444 71.922 87.5635 71.922 87.9156 72.6054L92.214 80.9955C92.2936 81.1513 92.3318 81.3249 92.325 81.4998C92.3182 81.6746 92.2666 81.8447 92.1751 81.9939C92.083 82.1429 91.9545 82.266 91.8016 82.3516C91.6487 82.4371 91.4765 82.4823 91.3013 82.4828ZM84.3804 80.4367H89.626L87.0032 75.3139L84.3804 80.4367Z" fill="#37474F"/>
<path d="M54.8829 39.9285C56.5196 37.4736 57.3378 34.6093 57.3378 31.5405C57.3378 23.1525 50.3818 16.1965 41.9938 16.1965C33.6058 16.1965 26.6498 23.1525 26.6498 31.5405C26.6498 39.9285 33.6058 46.8845 41.9938 46.8845C45.0626 46.8845 47.9269 45.8616 50.3818 44.4296L52.0186 46.0663C52.6324 46.6801 53.4506 46.8845 54.2691 46.8845C55.0873 46.8845 55.9058 46.6798 56.5196 46.0663C57.7472 44.8387 57.7472 42.9975 56.5196 41.7699L54.8829 39.9285ZM41.9941 40.5423C36.8795 40.5423 32.7875 36.4507 32.7875 31.3358C32.7875 26.221 36.8792 22.1293 41.9941 22.1293C47.1089 22.1293 51.2006 26.221 51.2006 31.3358C51.2006 32.7678 50.7915 33.9955 50.1777 35.2231L48.3363 33.3816C47.1087 32.154 45.2675 32.154 44.0399 33.3816C42.8123 34.6093 42.8123 36.4504 44.0399 37.678L45.8813 39.5194C44.6537 40.3376 43.4261 40.5423 41.9941 40.5423Z" fill="#ECEFF1"/>
<path d="M54.2693 47.9075C53.0376 47.9075 52.0392 47.5311 51.2967 46.7904L50.2063 45.6999C47.4791 47.1647 44.7192 47.9075 41.9943 47.9075C32.9699 47.9075 25.6273 40.5649 25.6273 31.5405C25.6273 22.5162 32.9699 15.1736 41.9943 15.1736C51.0186 15.1736 58.3612 22.5162 58.3612 31.5405C58.3612 34.5868 57.6205 37.3692 56.1578 39.8242L57.283 41.0907C58.8788 42.6844 58.8788 45.1516 57.2421 46.7904C56.5011 47.5311 55.5007 47.9075 54.2693 47.9075ZM50.3841 43.4064C50.6479 43.4064 50.9099 43.5088 51.1084 43.705L52.7451 45.3417C53.4449 46.0395 55.1001 46.0395 55.8016 45.3417C56.626 44.5174 56.626 43.3184 55.8016 42.4917L54.124 40.6076C53.9739 40.4386 53.8841 40.2247 53.8685 39.9993C53.853 39.7738 53.9126 39.5496 54.038 39.3616C55.5539 37.0885 56.3213 34.4576 56.3213 31.5403C56.3213 23.7783 49.7621 17.2192 42.0002 17.2192C34.2382 17.2192 27.679 23.7783 27.679 31.5403C27.679 39.3022 34.2382 45.8614 42.0002 45.8614C44.5902 45.8614 47.2376 45.0818 49.8726 43.5454C50.0273 43.4533 50.2041 43.4053 50.3841 43.4064ZM41.994 41.5653C36.3536 41.5653 31.7646 36.9765 31.7646 31.3358C31.7646 25.6952 36.3534 21.1064 41.994 21.1064C47.6346 21.1064 52.2234 25.6952 52.2234 31.3358C52.2234 32.7761 51.8757 34.1162 51.092 35.6813C51.0196 35.8263 50.9138 35.9521 50.7832 36.0481C50.6527 36.1442 50.5011 36.2078 50.3411 36.2337C50.0118 36.291 49.6864 36.1805 49.4533 35.9474L47.6119 34.106C46.7875 33.2796 45.5865 33.2816 44.7619 34.106C43.9375 34.9324 43.9375 36.1293 44.7619 36.956L46.6033 38.7974C46.7105 38.9043 46.7926 39.0338 46.8436 39.1764C46.8945 39.319 46.913 39.4711 46.8978 39.6218C46.8825 39.7723 46.8343 39.9177 46.7565 40.0475C46.6787 40.1773 46.5733 40.2883 46.4477 40.3727C44.8724 41.422 43.3114 41.5653 41.994 41.5653ZM41.994 23.1525C37.4809 23.1525 33.8107 26.8228 33.8107 31.3361C33.8107 35.8494 37.4809 39.5197 41.994 39.5197C42.7736 39.5197 43.4731 39.4624 44.1524 39.2375L43.3158 38.4008C41.6791 36.7641 41.6791 34.2948 43.3158 32.6581C44.9504 31.0234 47.4197 31.0214 49.0585 32.6581L49.8258 33.4254C50.0653 32.7052 50.1756 32.0302 50.1756 31.3366C50.1774 26.8228 46.5071 23.1525 41.994 23.1525Z" fill="#37474F"/>
<path d="M88.0261 18.2425C86.3894 17.6287 85.7756 15.7875 86.3894 14.1508L91.0949 2.8983C91.7087 1.26156 93.5499 0.647748 95.1866 1.26156C96.8234 1.87537 97.4372 3.71654 96.8234 5.35328L92.1178 16.6058C91.2993 18.2425 89.4582 18.8563 88.0261 18.2425Z" fill="#ECEFF1"/>
<path d="M89.1777 19.5009C88.6622 19.5009 88.1405 19.4006 87.6433 19.19C85.5627 18.3961 84.593 16.0291 85.4317 13.7908L90.1516 2.50151C90.925 0.439276 93.3063 -0.54067 95.5466 0.302135C96.6023 0.696927 97.4042 1.49905 97.8054 2.55882C98.1817 3.549 98.1735 4.66814 97.7808 5.71154L93.0589 17.0009C92.2734 18.5821 90.7428 19.5009 89.1777 19.5009ZM93.9078 2.05145C93.1303 2.05145 92.3693 2.41349 92.0521 3.25656L87.3322 14.5438C86.9661 15.5238 87.2033 16.8394 88.3859 17.2833C88.4002 17.2895 88.4166 17.2956 88.4288 17.3018C89.3228 17.6863 90.6016 17.355 91.2011 16.1499L95.8803 4.95854C96.0829 4.41637 96.0931 3.81075 95.8925 3.287C95.7575 2.9311 95.463 2.45853 94.8266 2.22109C94.5331 2.10949 94.2218 2.05202 93.9078 2.05145Z" fill="#37474F"/>
<path d="M101.529 27.449C100.301 26.2214 100.301 24.3802 101.529 23.1526L110.326 14.3553C111.554 13.1277 113.395 13.1277 114.622 14.3553C115.85 15.583 115.85 17.4241 114.622 18.6518L106.03 27.2446C104.802 28.6764 102.756 28.6764 101.529 27.449Z" fill="#ECEFF1"/>
<path d="M103.687 29.368C102.606 29.3657 101.571 28.9354 100.806 28.1711C100.019 27.3833 99.585 26.3644 99.585 25.3006C99.585 24.2347 100.019 23.2138 100.806 22.428L109.604 13.6308C111.175 12.0554 113.775 12.0554 115.346 13.6308C116.134 14.4165 116.568 15.4374 116.568 16.5013C116.568 17.5672 116.134 18.5881 115.346 19.3738L106.756 27.9666C106.04 28.8053 104.988 29.3209 103.84 29.3659C103.787 29.368 103.738 29.368 103.687 29.368ZM112.474 14.4575C111.957 14.4575 111.449 14.6785 111.05 15.0795L102.253 23.8767C101.852 24.2776 101.631 24.783 101.631 25.3026C101.631 25.8202 101.85 26.3256 102.253 26.7265C102.652 27.1254 103.206 27.3342 103.761 27.3219C104.332 27.2994 104.862 27.0356 105.252 26.5791L113.898 17.929C114.299 17.528 114.52 17.0227 114.52 16.5031C114.52 15.9855 114.301 15.4801 113.898 15.0792C113.499 14.6765 112.992 14.4575 112.474 14.4575Z" fill="#37474F"/>
<path d="M110.735 40.9516C110.121 39.3149 110.735 37.6781 112.372 36.8599L123.624 32.1544C125.261 31.5406 126.898 32.1544 127.716 33.7911C128.33 35.4279 127.716 37.0646 126.079 37.8828L114.827 42.5884C113.19 43.4066 111.349 42.5884 110.735 40.9516Z" fill="#ECEFF1"/>
<path d="M113.511 43.9365C113.031 43.9365 112.542 43.8464 112.075 43.6624C111.019 43.2492 110.183 42.3918 109.78 41.3095C108.967 39.145 109.825 36.9886 111.916 35.9431L123.229 31.2089C125.433 30.3825 127.585 31.2417 128.633 33.3326C129.488 35.5954 128.629 37.7518 126.54 38.7973L115.226 43.5314C114.694 43.798 114.107 43.9367 113.511 43.9365ZM124.874 32.9419C124.588 32.9419 124.291 32.9971 123.984 33.1118L112.769 37.803C111.693 38.3431 111.257 39.4233 111.695 40.5916C111.899 41.1297 112.309 41.5552 112.824 41.7558C113.319 41.9523 113.87 41.9236 114.373 41.6698L125.687 36.9356C126.763 36.3955 127.199 35.3152 126.761 34.147C126.37 33.3817 125.678 32.9419 124.874 32.9419Z" fill="#37474F"/>
<path d="M40.9712 112.761C42.6079 113.375 43.2217 115.216 42.6079 116.853L37.9024 128.106C37.2886 129.742 35.4474 130.356 33.8107 129.742C32.1739 129.129 31.5601 127.287 32.1739 125.651L36.8794 114.398C37.6977 112.761 39.5389 112.148 40.9712 112.761Z" fill="#ECEFF1"/>
<path d="M35.0872 131.001C34.5511 131.001 33.9967 130.905 33.4525 130.7C32.3968 130.305 31.5949 129.503 31.1937 128.443C30.8174 127.453 30.8276 126.334 31.2183 125.291L35.9382 114.001C36.9877 111.9 39.3488 110.965 41.3537 111.812C42.3991 112.209 43.1931 113.007 43.592 114.061C43.9683 115.051 43.9581 116.17 43.5674 117.213L38.8475 128.503C38.2624 130.059 36.7587 131.001 35.0872 131.001ZM39.8132 113.551C39.0581 113.551 38.2419 113.962 37.796 114.857L33.1191 126.048C32.9185 126.58 32.9082 127.202 33.1068 127.717C33.2398 128.073 33.5343 128.546 34.1707 128.785C35.1875 129.162 36.5051 128.931 36.945 127.746L41.6648 116.457C41.8654 115.925 41.8756 115.303 41.6771 114.787C41.5441 114.431 41.2496 113.959 40.6132 113.719C40.5985 113.715 40.5841 113.709 40.5703 113.703C40.3308 113.601 40.0732 113.55 39.8132 113.551Z" fill="#37474F"/>
<path d="M27.4684 103.555C28.696 104.783 28.696 106.624 27.4684 107.852L18.6711 116.649C17.4435 117.876 15.6023 117.876 14.3747 116.649C13.1471 115.421 13.1471 113.58 14.3747 112.352L22.9675 103.76C24.1949 102.328 26.241 102.328 27.4684 103.555Z" fill="#ECEFF1"/>
<path d="M16.5229 118.59C15.457 118.59 14.4381 118.157 13.6524 117.369C12.8646 116.583 12.4309 115.562 12.4309 114.498C12.4309 113.434 12.8646 112.412 13.6524 111.628L22.2452 103.035C22.9573 102.198 24.0109 101.681 25.1564 101.636C26.2653 101.605 27.3906 102.028 28.1904 102.831C28.9782 103.618 29.4119 104.637 29.4119 105.701C29.4119 106.765 28.9782 107.788 28.1904 108.572L19.3931 117.369C18.6097 118.159 17.5888 118.59 16.5229 118.59ZM25.3119 103.68C25.2874 103.68 25.2628 103.68 25.2362 103.682C24.6674 103.702 24.1376 103.966 23.7469 104.423L15.0988 113.075C14.6978 113.474 14.4768 113.981 14.4768 114.499C14.4768 115.016 14.6978 115.524 15.0988 115.922C15.9027 116.728 17.1487 116.726 17.9488 115.922L26.746 107.125C27.147 106.726 27.368 106.219 27.368 105.701C27.368 105.184 27.147 104.676 26.746 104.277C26.3635 103.897 25.8439 103.68 25.3119 103.68Z" fill="#37474F"/>
<path d="M18.2622 90.0523C18.876 91.6891 18.2622 93.3258 16.6254 94.1441L5.37293 98.8496C3.73619 99.4634 2.09945 98.8496 1.28121 97.2128C0.667401 95.5761 1.28121 93.9394 2.91795 93.1211L14.1704 88.4156C15.8069 87.5974 17.6484 88.4156 18.2622 90.0523Z" fill="#ECEFF1"/>
<path d="M4.12076 100.104C2.54543 100.104 1.14613 99.2282 0.368567 97.6693C-0.488566 95.4064 0.370613 93.2521 2.46151 92.2046L13.7774 87.4724C14.741 86.9855 15.8827 86.9303 16.9302 87.3435C17.9817 87.7567 18.8184 88.6141 19.2237 89.6923C20.0358 91.8589 19.1766 94.0153 17.0878 95.0587L5.77183 99.7929C5.20919 100.001 4.65474 100.104 4.12076 100.104ZM15.5063 89.1174C15.2011 89.118 14.9003 89.191 14.6287 89.3302L3.3148 94.0624C2.23865 94.6045 1.80292 95.6848 2.24274 96.851C2.76854 97.8903 3.84264 98.326 5.01704 97.8924L16.2327 93.1991C17.3088 92.6569 17.7446 91.5787 17.3047 90.4105C17.1021 89.8704 16.693 89.4469 16.1795 89.2463C15.9652 89.1613 15.7368 89.1176 15.5063 89.1174Z" fill="#37474F"/>
</svg>
