<svg width="135" height="155" viewBox="0 0 135 155" fill="none" xmlns="http://www.w3.org/2000/svg">
<path d="M87.3138 88.6457H85.7709L82.8866 89.9419L74.548 101.003H40.1675L31.1576 88.602H29.7957L19.5164 92.6166L16.1933 94.6022L12.3383 99.8837L10.8083 106.563V123.877H20.6467V152.492L21.8039 154.408H90.6725L87.3138 88.6457Z" fill="#6B7ED9"/>
<path d="M0.5 114.119V123.015L2.93735 123.877H11.6364V107.844C11.6364 101.293 15.9679 95.9198 19.5163 92.6166L12.6286 95.3067C7.44322 97.4406 0.5 104.155 0.5 114.119Z" fill="#4D66D2"/>
<path d="M74.5476 84.2995L71.6325 83.1707C71.2115 83.0077 70.8494 82.7214 70.5937 82.3492C70.338 81.9771 70.2006 81.5365 70.1994 81.085L70.1934 71.8968C66.7189 74.1704 62.5722 75.4979 58.1188 75.4979C57.6873 75.4979 57.2621 75.4838 56.8398 75.4629V103.223H62.4809L75.2744 86.1361L74.5476 84.2995Z" fill="#FFCEBE"/>
<path d="M57.7719 75.4918C53.0061 75.4291 48.8157 74.0822 45.3849 71.8635V81.071C45.3849 81.9947 44.9407 82.5391 44.4292 82.8862L40.9961 84.227L40.4001 85.9026L53.0028 103.222H57.7716L57.7719 75.4918Z" fill="#FFB1A0"/>
<path d="M10.8079 152.544L12.3381 154.408H17.1434L19.4734 152.156V133.061H10.8079V152.544Z" fill="#FFCEBE"/>
<path d="M2.0316 133.061L0.500488 134.2V150.366C0.500187 152.598 2.30995 154.408 4.54193 154.408H12.3383C11.6459 153.088 11.6368 151.975 11.6368 151.975V133.061H2.0316V133.061Z" fill="#FFB1A0"/>
<path d="M62.5558 102.272L62.142 101.941H57.3713V125.321L58.4199 127.34L59.9869 128.038C61.9261 128.038 63.4982 126.466 63.4982 124.527V103.563L62.5558 102.272Z" fill="#4D66D2"/>
<path d="M57.7723 124.527V101.941H53.4564L53.0417 102.253L52.0459 103.457V124.527C52.0459 126.466 53.618 128.038 55.5572 128.038H59.9876C60.2093 128.038 60.4252 128.015 60.6357 127.976C59.0063 127.671 57.7723 126.244 57.7723 124.527Z" fill="#2F4DCA"/>
<path d="M74.5475 84.2994L62.6711 100.098C61.7106 101.375 62.07 103.204 63.4422 104.023L69.2063 107.463C69.7846 107.808 70.4714 107.924 71.1308 107.787C71.7902 107.65 72.3743 107.271 72.7676 106.724L85.7707 88.6458L74.5475 84.2994ZM52.9268 100.098L40.9964 84.2274L29.7958 88.602L42.8303 106.724C43.2236 107.271 43.8077 107.65 44.4671 107.787C45.1265 107.924 45.8133 107.808 46.3916 107.463L52.1557 104.023C53.5279 103.204 53.8873 101.375 52.9268 100.098ZM10.8079 123.015H19.4734V134.2H10.8079V123.015Z" fill="#8896E0"/>
<path d="M0.5 123.015V134.2H11.6364V123.015H0.5Z" fill="#6B7ED9"/>
<path d="M21.8038 154.408V114.044C21.8038 113.426 21.5583 112.834 21.1213 112.397C20.6844 111.96 20.0917 111.714 19.4738 111.714C18.8558 111.714 18.2632 111.96 17.8262 112.397C17.3893 112.834 17.1438 113.426 17.1438 114.044V154.408H21.8038Z" fill="#4D66D2"/>
<path d="M129.844 84.1469H102.308L96.9216 87.5432V151.457L99.3526 153.437L101.39 154.408H129.844C132.416 154.408 134.5 152.323 134.5 149.751V88.8029C134.5 86.2317 132.415 84.1469 129.844 84.1469Z" fill="#DBEDFF"/>
<path d="M98.3661 149.751V88.8032C98.3661 86.2317 100.451 84.1469 103.022 84.1469H90.672C88.1004 84.1469 86.0156 86.2317 86.0156 88.8032V149.751C86.0156 152.323 88.1004 154.408 90.672 154.408H103.022C100.451 154.408 98.3661 152.323 98.3661 149.751Z" fill="#B5DCFF"/>
<path d="M114.587 101.003H105.93C101.506 101.003 97.908 97.4048 97.908 92.9818V87.4756C97.908 86.8577 98.1534 86.265 98.5904 85.8281C99.0274 85.3911 99.62 85.1456 100.238 85.1456C100.856 85.1456 101.449 85.3911 101.885 85.8281C102.322 86.265 102.568 86.8577 102.568 87.4756V92.9815C102.568 94.8347 104.076 96.3426 105.929 96.3426H114.587C116.44 96.3426 117.948 94.8347 117.948 92.9815V87.4756C117.948 86.8577 118.193 86.265 118.63 85.8281C119.067 85.3911 119.66 85.1456 120.278 85.1456C120.896 85.1456 121.488 85.3911 121.925 85.8281C122.362 86.265 122.608 86.8577 122.608 87.4756V92.9815C122.608 97.4048 119.01 101.003 114.587 101.003Z" fill="#FFE02F"/>
<path d="M121.241 79.2646H110.71C110.26 79.4621 109.812 79.6633 109.812 79.6633L108.673 80.9576V87.016L109.528 88.6017L110.461 89.0288H121.241C121.934 89.0288 122.598 88.7537 123.088 88.264C123.577 87.7743 123.852 87.1102 123.852 86.4177V81.8756C123.852 81.1832 123.577 80.5192 123.087 80.0295C122.598 79.5399 121.934 79.2647 121.241 79.2646Z" fill="#6B7ED9"/>
<path d="M109.014 86.418V81.8759C109.014 81.533 109.082 81.1935 109.213 80.8766C109.344 80.5598 109.537 80.2719 109.779 80.0295C110.021 79.787 110.309 79.5946 110.626 79.4634C110.943 79.3321 111.282 79.2646 111.625 79.2646H99.2749C98.932 79.2646 98.5924 79.3321 98.2756 79.4634C97.9588 79.5946 97.6709 79.787 97.4285 80.0295C97.186 80.2719 96.9937 80.5598 96.8625 80.8766C96.7313 81.1935 96.6638 81.533 96.6638 81.8759V86.418C96.6638 87.1105 96.9389 87.7746 97.4286 88.2643C97.9182 88.754 98.5824 89.0291 99.2749 89.0291H111.625C111.282 89.0291 110.943 88.9615 110.626 88.8303C110.309 88.6991 110.022 88.5068 109.779 88.2643C109.537 88.0218 109.344 87.734 109.213 87.4172C109.082 87.1004 109.014 86.7609 109.014 86.418Z" fill="#4D66D2"/>
<path d="M26.2964 45.1L31.2438 47.7925H35.8522V37.9026H31.6063L30.463 38.9765C28.7684 39.7383 27.2922 41.048 26.2967 42.6558L26.2964 45.1Z" fill="#FFCEBE"/>
<path d="M26.2964 42.6555C25.4667 43.9954 24.9697 45.5416 24.9697 47.1568C24.9697 52.239 29.6801 56.408 35.3769 55.7825L35.8519 54.6794V45.7083L35.3769 46.8115C31.5028 47.2367 28.0868 45.4438 26.2964 42.6555Z" fill="#FFB1A0"/>
<path d="M83.8525 47.7925L88.8234 45.4107L89.3747 42.5206C88.2869 40.64 86.558 39.1493 84.4406 38.4792L83.3863 37.9026H79.0366V47.7925H83.8525Z" fill="#FFCEBE"/>
<path d="M80.2206 46.8149L79.0369 46.0709V55.0419L80.2206 55.7859C85.9122 56.3911 90.6283 52.2227 90.6283 47.1273C90.6283 45.4915 90.1732 43.9013 89.3746 42.5204C87.6038 45.3802 84.1441 47.2319 80.2206 46.8149Z" fill="#FFB1A0"/>
<path d="M75.982 29.0483H73.1858L61.4834 37.6438H47.9688V59.0809L49.1564 65.4499L55.9428 73.8902L62.4152 76.3185H64.6903C73.6867 73.5135 80.2352 65.1064 80.2352 55.199V39.1626L75.982 29.0483Z" fill="#FFDECF"/>
<path d="M48.9293 55.1989V39.3381L51.3343 37.6438H37.7679L35.3628 39.3381V55.1989C35.3628 66.7578 44.4195 77.3151 58.1192 77.3151C60.3476 77.3171 62.5634 76.981 64.6909 76.3184C54.9895 73.4323 48.9293 64.6525 48.9293 55.1989Z" fill="#FFCEBE"/>
<path d="M78.7988 10.2253C76.6856 10.3878 74.7468 9.05909 74.34 6.97911C73.6551 3.47629 71.9207 0 65.1461 0H53.3791L49.4188 0.543141L45.4576 3.49468L41.1079 9.78589V35.961L42.8945 38.2524L44.96 39.3384H59.2759C65.2426 39.3384 70.4249 35.9909 73.0543 31.0728C73.2582 30.6916 73.8369 30.8405 73.8369 31.2727C73.8369 35.7089 77.4664 39.3384 81.9026 39.3384C84.2278 39.3384 86.1304 37.4357 86.1304 35.1106V17.2219C86.1301 13.0076 82.4533 9.94452 78.7988 10.2253Z" fill="#665E68"/>
<path d="M41.374 33.0997V15.5147C41.374 8.05303 46.4746 1.78293 53.3789 0H41.6415C33.0152 0 26.0222 6.99298 26.0222 15.6193V32.7613C26.0222 36.3935 28.9665 39.3378 32.5987 39.3378H45.55C43.0994 38.3269 41.374 35.9155 41.374 33.0997Z" fill="#544E55"/>
</svg>
