<svg width="131" height="124" viewBox="0 0 131 124" fill="none" xmlns="http://www.w3.org/2000/svg">
<path d="M84.7068 40.2818C95.8304 40.2818 104.848 31.2644 104.848 20.1409C104.848 9.0174 95.8304 0 84.7068 0C73.5833 0 64.5659 9.0174 64.5659 20.1409C64.5659 31.2644 73.5833 40.2818 84.7068 40.2818Z" fill="#EF7816"/>
<path d="M84.707 36.1258C93.5352 36.1258 100.692 28.9691 100.692 20.1409C100.692 11.3127 93.5352 4.15601 84.707 4.15601C75.8787 4.15601 68.722 11.3127 68.722 20.1409C68.722 28.9691 75.8787 36.1258 84.707 36.1258Z" fill="#FFC91D"/>
<path d="M94.5845 7.57782C96.805 10.391 98.0107 13.8715 98.0063 17.4555C98.0063 26.2836 90.8496 33.4404 82.0214 33.4404C78.4375 33.4446 74.9571 32.2389 72.1438 30.0186C75.0709 33.7363 79.6083 36.1258 84.7069 36.1258C93.5351 36.1258 100.692 28.9691 100.692 20.1409C100.692 15.0423 98.3023 10.505 94.5845 7.57782Z" fill="#FFA91A"/>
<path d="M86.3208 18.26H85.7816V12.3397H86.3208C87.1056 12.3405 87.858 12.6526 88.413 13.2075C88.968 13.7624 89.2803 14.5148 89.2813 15.2996C89.2813 15.5845 89.3944 15.8577 89.5959 16.0591C89.7973 16.2606 90.0706 16.3738 90.3554 16.3738C90.6403 16.3738 90.9136 16.2606 91.115 16.0591C91.3165 15.8577 91.4296 15.5845 91.4296 15.2996C91.4296 12.4825 89.1379 10.1913 86.3208 10.1913H85.7816V9.65206C85.7816 9.36717 85.6684 9.09395 85.467 8.8925C85.2655 8.69105 84.9923 8.57788 84.7074 8.57788C84.4225 8.57788 84.1493 8.69105 83.9478 8.8925C83.7464 9.09395 83.6332 9.36717 83.6332 9.65206V10.1913H83.0934C80.2764 10.1913 77.9846 12.4831 77.9846 15.2996C77.9846 18.1161 80.2764 20.4084 83.0934 20.4084H83.6332V27.9422H83.0934C82.3086 27.9413 81.5562 27.6292 81.0012 27.0743C80.4462 26.5194 80.134 25.7671 80.133 24.9823C80.133 24.6974 80.0198 24.4241 79.8184 24.2227C79.6169 24.0212 79.3437 23.9081 79.0588 23.9081C78.7739 23.9081 78.5007 24.0212 78.2992 24.2227C78.0978 24.4241 77.9846 24.6974 77.9846 24.9823C77.9846 27.7993 80.2764 30.0905 83.0934 30.0905H83.6332V30.6303C83.6332 30.9152 83.7464 31.1884 83.9478 31.3899C84.1493 31.5913 84.4225 31.7045 84.7074 31.7045C84.9923 31.7045 85.2655 31.5913 85.467 31.3899C85.6684 31.1884 85.7816 30.9152 85.7816 30.6303V30.0905H86.3208C89.1379 30.0905 91.4296 27.7988 91.4296 24.9823V23.3688C91.4291 20.5518 89.1379 18.26 86.3208 18.26ZM83.0934 18.26C81.4612 18.26 80.133 16.9318 80.133 15.2996C80.133 13.6674 81.4612 12.3397 83.0934 12.3397H83.6332V18.26H83.0934ZM89.2807 24.9823C89.2797 25.7671 88.9675 26.5194 88.4125 27.0743C87.8575 27.6292 87.1051 27.9413 86.3203 27.9422H85.781V20.4084H86.3203C87.1051 20.4092 87.8575 20.7213 88.4125 21.2762C88.9675 21.8311 89.2797 22.5835 89.2807 23.3683V24.9823Z" fill="#995222"/>
<path d="M120.719 69.1155L122.18 68.1772C121.589 67.7935 121.138 67.2288 120.894 66.5676L120.756 66.1905C120.724 66.103 120.701 66.0155 120.676 65.9274L119.763 66.5139L120.719 69.1155Z" fill="#2266D3"/>
<path d="M125.109 68.514L128.351 67.3201C129.038 67.0671 129.621 66.5918 130.007 65.9696C130.393 65.3475 130.56 64.6143 130.481 63.8865L130.387 63.0153C130.359 62.7578 130.28 62.5083 130.156 62.2811C130.031 62.0539 129.863 61.8535 129.661 61.6914C129.459 61.5293 129.227 61.4086 128.979 61.3362C128.73 61.2638 128.469 61.2413 128.212 61.2698L123.475 61.794C121.356 62.0287 120.019 64.1899 120.756 66.1906L120.895 66.5676C121.195 67.3845 121.808 68.0485 122.599 68.4135C123.389 68.7785 124.292 68.8146 125.109 68.514Z" fill="#377DE2"/>
<path d="M50.3336 105.276C47.9978 105.276 45.9005 104.276 44.4288 102.688V109.755C44.4288 110.54 44.741 111.294 45.2966 111.849C45.8522 112.405 46.6057 112.717 47.3914 112.717H56.2797C57.0655 112.717 57.819 112.405 58.3746 111.849C58.9302 111.294 59.2423 110.54 59.2423 109.755V105.276H50.3336ZM119.081 105.275H110.172V109.754C110.172 110.54 110.484 111.293 111.04 111.849C111.595 112.405 112.349 112.717 113.135 112.717H122.023C122.809 112.717 123.562 112.405 124.118 111.849C124.673 111.293 124.986 110.54 124.986 109.754V102.686C123.514 104.275 121.417 105.275 119.081 105.275Z" fill="#414042"/>
<path d="M50.3336 105.276L119.081 105.275C123.531 105.275 127.138 101.668 127.138 97.2189V82.5821C127.138 80.4858 126.524 78.4352 125.373 76.6832L121.124 70.2172H48.291L44.0421 76.6832C42.8907 78.4351 42.2772 80.4857 42.2772 82.5821V97.2194C42.2767 101.669 45.8838 105.276 50.3336 105.276Z" fill="#377DE2"/>
<path d="M127.137 82.5826C127.137 80.4863 126.524 78.4357 125.372 76.6837L121.123 70.2177H120.203L122.687 73.9982C123.839 75.7501 124.452 77.8007 124.452 79.8971V94.5339C124.452 98.9832 120.845 102.59 116.396 102.59L47.6482 102.591C46.1121 102.591 44.6818 102.154 43.4604 101.408C44.8751 103.725 47.4199 105.277 50.3336 105.277L119.081 105.276C123.531 105.276 127.138 101.669 127.138 97.2194L127.137 82.5826Z" fill="#2266D3"/>
<path d="M96.5126 93.5011H72.901C72.308 93.501 71.7317 93.3048 71.262 92.9429C70.7922 92.581 70.4555 92.0738 70.3042 91.5004L69.035 86.687C68.586 84.9839 69.8702 83.3168 71.6318 83.3168H97.7817C99.5429 83.3168 100.828 84.9839 100.379 86.687L99.1094 91.5004C98.9582 92.0738 98.6215 92.5811 98.1517 92.943C97.6819 93.3049 97.1056 93.5011 96.5126 93.5011Z" fill="#414042"/>
<path d="M120.209 73.3726L118.746 70.7655C118.652 70.5992 118.516 70.4607 118.352 70.3643C118.187 70.268 118 70.2172 117.809 70.2172H51.6049C51.4142 70.2172 51.2269 70.268 51.0622 70.3643C50.8976 70.4607 50.7616 70.5992 50.6682 70.7655L49.2047 73.3726C49.0134 73.7133 48.8988 74.0917 48.8689 74.4813C48.8389 74.8709 48.8944 75.2623 49.0313 75.6283C49.1683 75.9943 49.3834 76.3259 49.6618 76.6002C49.9402 76.8744 50.275 77.0845 50.643 77.216L61.8097 81.2044C62.3893 81.4117 63.0003 81.5176 63.6159 81.5176H105.797C106.412 81.5176 107.023 81.4117 107.603 81.2044L118.77 77.216C119.138 77.0847 119.473 76.8747 119.751 76.6005C120.03 76.3264 120.245 75.9947 120.382 75.6287C120.519 75.2627 120.575 74.8712 120.545 74.4815C120.515 74.0918 120.401 73.7134 120.209 73.3726Z" fill="#2266D3"/>
<path d="M106.559 85.5623C108.676 83.472 113.508 80.134 122.872 79.9691C123.093 79.9663 123.311 80.0321 123.494 80.1575C123.677 80.2828 123.817 80.4616 123.894 80.6694C124.481 82.2377 125.432 85.9501 121.781 86.9647C118.32 87.9261 110.866 87.6044 107.244 87.374C106.33 87.3154 105.907 86.2058 106.559 85.5623Z" fill="white"/>
<path d="M123.894 80.6694C123.816 80.4617 123.677 80.283 123.494 80.1577C123.311 80.0323 123.093 79.9665 122.872 79.9691C122.561 79.9744 122.268 79.9922 121.968 80.0045C122.253 81.7227 122.008 83.8404 119.385 84.5693C116.527 85.3631 110.952 85.282 107.054 85.0999C106.876 85.2589 106.709 85.4146 106.559 85.5629C105.907 86.2063 106.33 87.3159 107.244 87.3739C110.866 87.6044 118.319 87.9266 121.78 86.9647C125.432 85.9501 124.481 82.2377 123.894 80.6694Z" fill="#F1F2F2"/>
<path d="M62.8553 85.5623C60.7387 83.472 55.9065 80.134 46.5428 79.9691C46.321 79.9663 46.1037 80.0321 45.9207 80.1575C45.7377 80.2828 45.5978 80.4616 45.5202 80.6694C44.9332 82.2377 43.982 85.9501 47.6336 86.9647C51.0947 87.9261 58.5484 87.6044 62.17 87.374C63.0847 87.3154 63.5074 86.2058 62.8553 85.5623Z" fill="white"/>
<path d="M62.8554 85.5624C62.2105 84.9314 61.5104 84.3594 60.7634 83.8534C60.7929 84.3964 60.4062 84.9378 59.7751 84.9781C56.153 85.2085 48.6998 85.5307 45.2388 84.5688C45.1797 84.5527 45.1319 84.5296 45.075 84.5119C45.3311 85.5737 46.0476 86.5238 47.6337 86.9642C51.0947 87.9256 58.5484 87.6039 62.17 87.3735C63.0847 87.3155 63.5074 86.2058 62.8554 85.5624Z" fill="#F1F2F2"/>
<path d="M104.611 45.6812H64.8028C62.6039 45.6812 60.458 46.3561 58.6549 47.6146C56.8517 48.8731 55.4783 50.6547 54.72 52.7187L48.291 70.2171H121.124L114.695 52.7187C113.936 50.6548 112.563 48.8732 110.76 47.6147C108.956 46.3562 106.81 45.6814 104.611 45.6812Z" fill="#377DE2"/>
<path d="M52.4185 65.5907L56.9666 53.4223C57.3498 52.3973 58.0369 51.5138 58.936 50.89C59.8351 50.2662 60.9033 49.9319 61.9975 49.9318H107.417C109.657 49.9318 111.663 51.3234 112.448 53.4223L116.996 65.5907C117.056 65.7531 117.077 65.9279 117.055 66.1C117.034 66.2721 116.971 66.4364 116.872 66.5789C116.773 66.7214 116.641 66.8378 116.488 66.9183C116.334 66.9987 116.163 67.0408 115.99 67.0408H53.4245C53.2511 67.0408 53.0802 66.9987 52.9266 66.9183C52.7729 66.8378 52.641 66.7214 52.5422 66.5789C52.4433 66.4364 52.3804 66.2721 52.3589 66.1C52.3374 65.9279 52.3578 65.7531 52.4185 65.5907Z" fill="#F1F2F2"/>
<path d="M88.9215 54.2285C88.3285 54.2285 87.8296 53.7473 87.8296 53.1543C87.8296 52.5614 88.2925 52.0801 88.886 52.0801H88.9215C89.2064 52.0801 89.4796 52.1933 89.681 52.3948C89.8825 52.5962 89.9956 52.8694 89.9956 53.1543C89.9956 53.4392 89.8825 53.7124 89.681 53.9139C89.4796 54.1153 89.2064 54.2285 88.9215 54.2285ZM84.5893 54.2285H62.0315C61.7466 54.2285 61.4733 54.1153 61.2719 53.9139C61.0704 53.7124 60.9573 53.4392 60.9573 53.1543C60.9573 52.8694 61.0704 52.5962 61.2719 52.3948C61.4733 52.1933 61.7466 52.0801 62.0315 52.0801H84.5893C84.8742 52.0801 85.1474 52.1933 85.3488 52.3948C85.5503 52.5962 85.6635 52.8694 85.6635 53.1543C85.6635 53.4392 85.5503 53.7124 85.3488 53.9139C85.1474 54.1153 84.8742 54.2285 84.5893 54.2285Z" fill="white"/>
<path d="M116.996 65.5907L112.448 53.4223C112.086 52.4562 111.454 51.6146 110.627 50.9981C109.801 50.3816 108.814 50.0162 107.785 49.9457L111.624 60.2198C111.685 60.3822 111.705 60.557 111.684 60.7291C111.662 60.9012 111.599 61.0655 111.501 61.208C111.402 61.3505 111.27 61.4669 111.116 61.5474C110.963 61.6278 110.792 61.6699 110.618 61.6699H53.8837L52.4185 65.5907C52.3578 65.7531 52.3374 65.9279 52.3589 66.1C52.3804 66.2721 52.4433 66.4364 52.5422 66.5789C52.641 66.7214 52.7729 66.8378 52.9266 66.9183C53.0802 66.9987 53.2511 67.0408 53.4245 67.0408H115.989C116.163 67.0409 116.334 66.9989 116.487 66.9185C116.641 66.8381 116.773 66.7216 116.872 66.5791C116.971 66.4366 117.034 66.2722 117.055 66.1001C117.077 65.928 117.056 65.7532 116.996 65.5907Z" fill="#E6E7E8"/>
<path d="M116.996 65.5907L112.448 53.4224C112.199 52.759 111.822 52.1514 111.338 51.6346C110.853 51.1177 110.272 50.7018 109.626 50.4109C109.674 50.5178 109.721 50.6257 109.762 50.7369L114.31 62.9052C114.371 63.0677 114.391 63.2425 114.37 63.4145C114.348 63.5866 114.285 63.751 114.187 63.8935C114.088 64.036 113.956 64.1524 113.802 64.2329C113.649 64.3133 113.478 64.3553 113.304 64.3554H52.8804L52.4185 65.5907C52.3578 65.7532 52.3374 65.9279 52.3589 66.1C52.3804 66.2721 52.4433 66.4364 52.5422 66.5789C52.641 66.7214 52.7729 66.8379 52.9266 66.9183C53.0802 66.9988 53.2511 67.0408 53.4245 67.0408H115.989C116.163 67.0409 116.334 66.9989 116.487 66.9185C116.641 66.8381 116.773 66.7217 116.872 66.5791C116.971 66.4366 117.034 66.2723 117.055 66.1001C117.077 65.928 117.056 65.7532 116.996 65.5907Z" fill="#D1D3D4"/>
<path d="M110.838 100.976H58.5769C57.6682 100.976 57.1703 99.9178 57.7487 99.2174L59.2504 97.3999C59.5024 97.0949 59.8187 96.8493 60.1766 96.6808C60.5346 96.5123 60.9253 96.425 61.3209 96.425H108.094C108.895 96.425 109.654 96.7828 110.165 97.3999L111.666 99.2174C112.244 99.9183 111.746 100.976 110.838 100.976Z" fill="#414042"/>
<path d="M117.687 101.814C119.407 101.814 120.801 100.42 120.801 98.7007C120.801 96.9811 119.407 95.5872 117.687 95.5872C115.968 95.5872 114.574 96.9811 114.574 98.7007C114.574 100.42 115.968 101.814 117.687 101.814Z" fill="#D1D3D4"/>
<path d="M117.688 100.596C118.734 100.596 119.583 99.7475 119.583 98.7007C119.583 97.6539 118.734 96.8053 117.688 96.8053C116.641 96.8053 115.792 97.6539 115.792 98.7007C115.792 99.7475 116.641 100.596 117.688 100.596Z" fill="white"/>
<path d="M32.1659 48.6046C31.881 48.6046 31.6078 48.4914 31.4063 48.29C31.2049 48.0885 31.0917 47.8153 31.0917 47.5304V30.546C31.0917 30.2611 31.2049 29.9879 31.4063 29.7864C31.6078 29.585 31.881 29.4718 32.1659 29.4718C32.4508 29.4718 32.724 29.585 32.9254 29.7864C33.1269 29.9879 33.2401 30.2611 33.2401 30.546V47.5304C33.2401 47.8153 33.1269 48.0885 32.9254 48.29C32.724 48.4914 32.4508 48.6046 32.1659 48.6046ZM21.4246 48.6051C21.0191 48.6051 20.6302 48.3742 20.4492 47.9816L15.0783 36.3681C14.9587 36.1094 14.9468 35.8139 15.0451 35.5465C15.1434 35.2791 15.3439 35.0617 15.6025 34.9421C15.8611 34.8225 16.1567 34.8105 16.4241 34.9088C16.6915 35.0072 16.9089 35.2077 17.0285 35.4663L22.3994 47.0798C22.4752 47.2435 22.5085 47.4236 22.4963 47.6035C22.4841 47.7835 22.4268 47.9574 22.3297 48.1094C22.2326 48.2614 22.0988 48.3864 21.9406 48.4731C21.7824 48.5597 21.6049 48.6051 21.4246 48.6051ZM42.9072 48.6051C42.7269 48.605 42.5495 48.5595 42.3914 48.4728C42.2333 48.3861 42.0995 48.2611 42.0024 48.1092C41.9054 47.9572 41.848 47.7833 41.8358 47.6034C41.8235 47.4236 41.8567 47.2435 41.9323 47.0798L47.3033 35.4663C47.4278 35.2158 47.6451 35.0237 47.9091 34.9309C48.173 34.8381 48.4627 34.8518 48.7167 34.9693C48.9706 35.0867 49.1687 35.2985 49.269 35.5597C49.3692 35.8209 49.3636 36.1109 49.2534 36.3681L43.8825 47.9816C43.7964 48.1677 43.6587 48.3253 43.4859 48.4358C43.3131 48.5463 43.1123 48.6051 42.9072 48.6051Z" fill="#58595B"/>
<path d="M8.49474 21.8349L8.93032 23.864C9.15453 24.9076 9.67532 25.8643 10.4301 26.619C11.1849 27.3738 12.1415 27.8946 13.1852 28.1188L15.2143 28.5544C15.7036 28.6597 15.7036 29.3574 15.2143 29.4626L13.1852 29.8982C12.1415 30.1224 11.1849 30.6432 10.4301 31.398C9.67532 32.1528 9.15453 33.1094 8.93032 34.153L8.49474 36.1822C8.38947 36.6715 7.69178 36.6715 7.58651 36.1822L7.15093 34.153C6.92672 33.1094 6.40593 32.1528 5.65115 31.398C4.89637 30.6432 3.9397 30.1224 2.8961 29.8982L0.866967 29.4626C0.377678 29.3574 0.377678 28.6597 0.866967 28.5544L2.8961 28.1188C3.9397 27.8946 4.89637 27.3738 5.65115 26.619C6.40593 25.8643 6.92672 24.9076 7.15093 23.864L7.58651 21.8349C7.69125 21.3456 8.38947 21.3456 8.49474 21.8349ZM58.0478 27.3588L58.3593 28.8095C58.5197 29.5558 58.8921 30.2399 59.4318 30.7796C59.9716 31.3194 60.6557 31.6918 61.402 31.8522L62.8526 32.1637C63.2023 32.2389 63.2023 32.7378 62.8526 32.813L61.402 33.1245C60.6557 33.2849 59.9716 33.6573 59.4318 34.197C58.8921 34.7368 58.5197 35.4209 58.3593 36.1671L58.0478 37.6178C57.9726 37.9675 57.4737 37.9675 57.3985 37.6178L57.087 36.1671C56.9266 35.4209 56.5542 34.7368 56.0145 34.197C55.4747 33.6573 54.7906 33.2849 54.0444 33.1245L52.5937 32.813C52.244 32.7378 52.244 32.2389 52.5937 32.1637L54.0444 31.8522C54.7906 31.6918 55.4747 31.3194 56.0145 30.7796C56.5542 30.2399 56.9266 29.5558 57.087 28.8095L57.3985 27.3588C57.4731 27.0092 57.9726 27.0092 58.0478 27.3588Z" fill="#FFC91D"/>
<path d="M70.2468 87.2955C68.1044 85.1531 64.6305 85.1525 62.4875 87.295L66.6182 83.1642C68.7612 81.0212 68.7612 77.5473 66.6182 75.4049C64.4753 73.2619 61.0013 73.2619 58.8589 75.4049L53.9241 80.3391L62.7383 71.5249C64.8813 69.3819 64.8813 65.908 62.7383 63.7656C60.5953 61.6226 57.1214 61.6226 54.9789 63.7656L46.1647 72.5798L67.4932 51.2513C69.6362 49.1084 69.6362 45.6344 67.4932 43.492C65.3502 41.3495 61.8763 41.349 59.7338 43.492L31.4914 71.7344L36.7995 59.1992C38.0348 56.2823 36.6357 52.9196 33.6962 51.739C32.3471 51.1972 30.8413 51.1952 29.4908 51.7335C28.1403 52.2717 27.0487 53.3089 26.4422 54.6302L19.2978 70.1892C16.9847 75.227 15.5482 80.6225 15.05 86.1435L14.1326 96.3042L9.0308 101.406C8.52719 101.91 8.24426 102.593 8.24426 103.305C8.24426 104.017 8.52719 104.7 9.0308 105.204L26.4734 122.647C26.977 123.15 27.66 123.433 28.3723 123.433C29.0845 123.433 29.7675 123.15 30.2711 122.647L36.5777 116.34C46.3903 114.589 53.9633 111.339 61.0116 104.291L62.5267 102.776L62.5272 102.775L70.2474 95.0549C72.3898 92.9124 72.3898 89.438 70.2468 87.2955Z" fill="#FCC4AE"/>
<path d="M66.1284 50.1385L64.4301 51.8368C64.2287 52.0382 63.9555 52.1513 63.6707 52.1513C63.3858 52.1513 63.1126 52.0382 62.9112 51.8368L59.1478 48.0729C58.9464 47.8714 58.8333 47.5982 58.8333 47.3134C58.8333 47.0286 58.9464 46.7554 59.1478 46.554L60.8461 44.8557C61.3497 44.3521 62.0328 44.0692 62.745 44.0692C63.4572 44.0692 64.1402 44.3521 64.6439 44.8557L66.1289 46.3407C66.6322 46.8446 66.9148 47.5276 66.9147 48.2397C66.9146 48.9519 66.6318 49.6348 66.1284 50.1385ZM35.0598 58.4747L34.0995 60.6762C33.9855 60.9373 33.7725 61.1425 33.5074 61.2466C33.2422 61.3508 32.9465 61.3454 32.6853 61.2316L27.8064 59.1042C27.5453 58.9902 27.3401 58.7772 27.236 58.512C27.1319 58.2469 27.1373 57.9512 27.251 57.69L28.2114 55.4885C28.4961 54.8357 29.0285 54.3227 29.6914 54.0623C30.3544 53.8019 31.0936 53.8155 31.7465 54.1001L33.6714 54.9396C33.9947 55.0805 34.2871 55.2838 34.5318 55.5377C34.7766 55.7916 34.9689 56.0913 35.0978 56.4196C35.2267 56.7478 35.2897 57.0983 35.2832 57.4509C35.2767 57.8035 35.2008 58.1514 35.0598 58.4747Z" fill="#FFD2C0"/>
<path d="M71.6513 89.7076C71.4003 90.62 70.9163 91.4515 70.2468 92.1203L62.5267 99.8404L61.0115 101.356C53.9633 108.404 46.3908 111.654 36.5777 113.405L29.8398 120.143C29.6472 120.336 29.4184 120.489 29.1667 120.593C28.9149 120.697 28.645 120.751 28.3725 120.751C28.1 120.751 27.8301 120.697 27.5784 120.593C27.3266 120.489 27.0979 120.336 26.9052 120.143L8.59951 101.837C8.40677 102.03 8.25389 102.259 8.14958 102.51C8.04527 102.762 7.99158 103.032 7.99158 103.305C7.99158 103.577 8.04527 103.847 8.14958 104.099C8.25389 104.351 8.40677 104.579 8.59951 104.772L26.9052 123.078C27.0979 123.27 27.3266 123.423 27.5784 123.528C27.8301 123.632 28.1 123.686 28.3725 123.686C28.645 123.686 28.9149 123.632 29.1667 123.528C29.4184 123.423 29.6472 123.27 29.8398 123.078L36.5777 116.34C46.3903 114.589 53.9628 111.338 61.0115 104.29L62.5267 102.775L70.2468 95.0549C71.6954 93.6064 72.161 91.5504 71.6513 89.7076Z" fill="#F2AD97"/>
</svg>
