<svg width="201" height="176" viewBox="0 0 201 176" fill="none" xmlns="http://www.w3.org/2000/svg">
<g clip-path="url(#clip0_0_454)">
<path d="M96.4491 50.1017C96.5919 50.1053 96.7346 50.1089 96.8817 50.1127C102.487 50.2961 108.276 51.7913 113.558 53.6154C113.812 53.7031 114.066 53.7901 114.32 53.8772C118.518 55.3214 122.574 57.1148 126.541 59.1036C126.715 59.1905 126.715 59.1905 126.893 59.2792C128.551 60.1104 130.121 61.0665 131.685 62.0614C131.038 62.493 130.381 62.429 129.628 62.3186C129.003 62.1107 128.43 61.7851 127.857 61.4653C127.579 61.3101 127.299 61.1594 127.018 61.0096C126.642 60.8094 126.267 60.608 125.893 60.4055C120.142 57.3072 113.603 54.741 107.11 53.8649C106.767 53.8175 106.427 53.7592 106.086 53.7025C105.244 53.5743 104.4 53.4732 103.554 53.373C103.352 53.3485 103.352 53.3485 103.146 53.3235C100.837 53.0561 98.5375 53.0336 96.216 53.0354C96.0592 53.0354 95.9025 53.0354 95.741 53.0354C93.4855 53.037 91.2326 53.0426 88.9904 53.3167C88.8701 53.3314 88.7499 53.346 88.626 53.3611C87.3791 53.5334 86.1597 53.8257 84.9358 54.1145C84.5715 54.2004 84.207 54.2853 83.8424 54.3701C81.8238 54.8414 79.8266 55.3686 77.8424 55.9691C77.7525 55.9962 77.6626 56.0233 77.57 56.0513C74.5179 56.7439 74.5179 56.7439 71.8867 58.0749C71.9892 58.0825 72.0916 58.0902 72.1972 58.0981C78.362 58.5607 84.5141 59.0979 90.6621 59.7466C90.8043 59.7616 90.9465 59.7765 91.093 59.7919C93.5899 60.0545 96.0848 60.3336 98.5795 60.6157C98.6669 60.6256 98.7544 60.6355 98.8444 60.6456C99.7928 60.7529 100.741 60.8604 101.689 60.9686C103.289 61.1507 104.89 61.3266 106.492 61.4898C107.86 61.6292 109.225 61.7864 110.589 61.9576C111.619 62.0851 112.65 62.2018 113.681 62.3186C113.779 62.3299 113.878 62.3412 113.979 62.3528C120.098 63.0534 126.403 62.9159 132.516 62.2521C143.986 61.0129 153.392 63.1173 163.752 67.9476C164.058 68.0896 164.364 68.2296 164.671 68.3688C166.441 69.1769 168.149 70.1114 169.827 71.0945C169.933 71.1563 170.038 71.2181 170.147 71.2818C170.393 71.4491 170.393 71.4491 170.522 71.7063C170.546 72.0523 170.533 72.3875 170.522 72.7351C170.48 72.7776 170.437 72.82 170.393 72.8637C169.69 72.8185 169.253 72.632 168.665 72.2529C163.09 68.7632 156.904 66.1792 150.589 64.3762C150.422 64.328 150.422 64.328 150.251 64.2789C147.248 63.4282 144.218 63.1293 141.105 63.1625C140.876 63.1638 140.876 63.1638 140.643 63.1651C137.585 63.1821 134.56 63.366 131.523 63.7089C128.547 64.0427 125.593 64.1714 122.6 64.1748C122.321 64.1753 122.042 64.1764 121.763 64.1776C118.839 64.188 115.949 64.004 113.038 63.7332C112.916 63.7219 112.794 63.7106 112.668 63.6989C110.742 63.5197 108.817 63.3312 106.892 63.1406C106.321 63.0841 105.75 63.0283 105.179 62.9724C102.629 62.7229 100.081 62.47 97.5356 62.1785C95.1041 61.9004 92.6669 61.6965 90.2279 61.4952C89.3044 61.4189 88.3809 61.3415 87.4574 61.264C87.1425 61.2377 86.8275 61.2117 86.5124 61.1858C85.4972 61.1016 84.484 61.0071 83.4711 60.8976C82.5752 60.8009 81.6812 60.7236 80.7811 60.675C80.6511 60.6674 80.5211 60.6598 80.3872 60.652C79.981 60.6283 79.5748 60.6053 79.1686 60.5825C76.181 60.4144 76.181 60.4144 74.743 60.2651C70.9449 59.8796 67.1081 59.7985 63.2947 59.6663C63.1745 59.6621 63.0543 59.6579 62.9305 59.6535C58.4124 59.4959 53.9027 59.4253 49.3819 59.4894C49.2607 59.4911 49.1395 59.4928 49.0146 59.4945C47.6355 59.5147 46.2587 59.554 44.881 59.618C44.7234 59.625 44.5658 59.6319 44.4035 59.639C42.3733 59.7336 40.3684 59.9396 38.3546 60.2048C38.2452 60.2192 38.1359 60.2335 38.0232 60.2484C37.7136 60.2895 37.4041 60.3315 37.0947 60.3741C36.9547 60.3929 36.9547 60.3929 36.8119 60.4122C36.3304 60.4768 36.3304 60.4768 35.879 60.6468C34.1793 60.8012 34.1793 60.8012 33.5482 60.3896C33.1168 60.0074 32.8469 59.518 32.6641 58.975C32.6641 58.8477 32.6641 58.7204 32.6641 58.5893C35.4459 57.7255 38.5206 57.5473 41.4153 57.3505C41.536 57.3422 41.6566 57.334 41.7809 57.3255C45.1189 57.1049 48.4599 57.1148 51.8037 57.125C52.3222 57.1265 52.8408 57.1271 53.3593 57.1276C58.3157 57.1328 63.2592 57.2001 68.2055 57.5376C68.7288 57.573 69.2523 57.6051 69.7759 57.6373C70.0508 57.6546 70.3258 57.6718 70.6007 57.6891C70.4667 57.6672 70.3327 57.6453 70.1947 57.6228C66.989 57.0982 63.7908 56.5405 60.596 55.9533C59.2913 55.7137 57.9856 55.4795 56.6799 55.2457C56.4603 55.2063 56.2408 55.167 56.0212 55.1276C55.5228 55.0383 55.0243 54.9491 54.5259 54.8599C54.9295 54.6313 55.2836 54.5446 55.7415 54.4786C55.8805 54.4582 56.0195 54.4379 56.1627 54.4169C56.3122 54.396 56.4616 54.3751 56.6156 54.3535C56.7718 54.3311 56.9279 54.3086 57.0888 54.2854C58.1754 54.1308 59.2633 53.991 60.3527 53.8585C61.5333 53.7137 62.7114 53.5529 63.8895 53.389C63.989 53.3752 64.0885 53.3614 64.191 53.3471C65.6017 53.1507 67.0114 52.9484 68.4187 52.7292C69.7747 52.5226 71.1376 52.3695 72.4996 52.2086C73.1335 52.1335 73.7672 52.0567 74.4009 51.98C77.8853 51.5592 81.37 51.1411 84.8578 50.749C85.4857 50.6783 86.1135 50.607 86.7409 50.5325C89.9869 50.1479 93.1807 50.0068 96.4491 50.1017Z" fill="#F1F1F1"/>
<path d="M96.1517 52.8988C96.3755 52.8978 96.3755 52.8978 96.6038 52.8967C98.7085 52.8893 100.784 52.9875 102.879 53.1881C103.065 53.2052 103.251 53.2222 103.437 53.2391C105.116 53.3976 106.763 53.5913 108.409 53.9597C108.61 53.999 108.812 54.0377 109.014 54.0757C114.566 55.1255 119.876 57.33 124.942 59.7868C125.074 59.8509 125.074 59.8509 125.209 59.9164C126.058 60.3295 126.898 60.7521 127.719 61.219C128.968 61.9266 129.849 62.3548 131.305 62.2146C131.43 62.2065 131.556 62.1984 131.685 62.19C131.77 62.2749 131.855 62.3598 131.942 62.4472C125.954 63.154 119.671 63.1358 113.681 62.4472C113.477 62.4242 113.273 62.4012 113.069 62.3783C111.963 62.2527 110.858 62.1194 109.753 61.9831C108.093 61.7785 106.431 61.5941 104.768 61.4104C104.619 61.3939 104.47 61.3774 104.316 61.3605C102.319 61.1396 100.321 60.9206 98.3228 60.7062C97.3111 60.5977 96.2995 60.4877 95.2881 60.3756C92.3276 60.0478 89.3656 59.7344 86.4023 59.4332C86.309 59.4237 86.2158 59.4142 86.1198 59.4044C83.7198 59.1605 81.319 58.9414 78.9139 58.755C78.8005 58.7462 78.6871 58.7374 78.5703 58.7283C77.4585 58.6422 76.3466 58.5579 75.2344 58.4777C74.8258 58.4481 74.4173 58.4176 74.0087 58.3869C73.7264 58.3661 73.444 58.3467 73.1615 58.3273C72.9111 58.3084 72.9111 58.3084 72.6556 58.2892C72.5094 58.2788 72.3632 58.2684 72.2126 58.2576C72.105 58.2397 71.9975 58.2219 71.8867 58.2035C71.8442 58.1186 71.8018 58.0337 71.7581 57.9463C74.7707 56.7856 77.8548 55.637 81.0222 54.9774C81.4768 54.8797 81.9197 54.7492 82.366 54.6188C83.2635 54.3593 84.1676 54.1399 85.0792 53.9362C85.3338 53.8792 85.5881 53.821 85.8424 53.7628C89.2581 52.9883 92.6645 52.9058 96.1517 52.8988Z" fill="#020202"/>
<path d="M102.75 80.9655C104.402 80.9495 104.402 80.9495 106.086 80.9333C106.431 80.9286 106.777 80.9239 107.132 80.9191C107.409 80.9176 107.686 80.9163 107.962 80.9152C108.104 80.9126 108.245 80.91 108.39 80.9072C109.386 80.9068 110.254 81.0363 111.001 81.7416C111.058 81.8276 111.115 81.9136 111.174 82.0023C111.263 82.1318 111.263 82.1318 111.355 82.264C111.764 82.9759 111.653 83.7945 111.656 84.5903C111.659 84.7456 111.661 84.9008 111.664 85.0608C111.668 86.0565 111.662 86.8971 110.989 87.6883C110.901 87.7587 110.814 87.8292 110.724 87.9018C110.636 87.9745 110.549 88.0473 110.458 88.1223C110.019 88.4278 109.65 88.44 109.13 88.4388C108.915 88.4388 108.915 88.4388 108.695 88.4387C108.545 88.4381 108.394 88.4374 108.239 88.4367C108.031 88.4365 108.031 88.4365 107.818 88.4364C107.3 88.4357 106.781 88.4339 106.263 88.4322C105.104 88.4296 103.945 88.4269 102.75 88.4242C102.75 85.9628 102.75 83.5014 102.75 80.9655Z" fill="#020202"/>
<path d="M165.764 80.9654C167.586 80.9495 167.586 80.9495 169.445 80.9333C170.019 80.9263 170.019 80.9263 170.604 80.9191C170.908 80.9176 171.212 80.9163 171.516 80.9152C171.751 80.9113 171.751 80.9113 171.992 80.9072C173.374 80.9067 173.374 80.9067 173.994 81.4798C174.677 82.2552 174.679 82.8224 174.669 83.8318C174.642 84.2428 174.608 84.476 174.42 84.8314C174.365 84.9561 174.309 85.0808 174.251 85.2092C174.341 85.3726 174.341 85.3726 174.432 85.5392C174.705 86.1263 174.68 86.6133 174.661 87.2507C174.659 87.4203 174.659 87.4203 174.656 87.5933C174.652 87.8703 174.645 88.1473 174.637 88.4242C174.213 88.4242 173.788 88.4242 173.351 88.4242C173.309 87.6179 173.266 86.8115 173.223 85.9808C172.917 85.8282 172.722 85.8322 172.381 85.8258C172.26 85.8232 172.139 85.8207 172.015 85.818C171.884 85.8159 171.753 85.8137 171.618 85.8115C171.484 85.8088 171.351 85.8062 171.213 85.8034C170.784 85.795 170.356 85.7874 169.927 85.7799C169.637 85.7743 169.347 85.7687 169.057 85.763C168.345 85.7491 167.633 85.7364 166.921 85.7236C166.921 86.6148 166.921 87.506 166.921 88.4242C166.539 88.4242 166.157 88.4242 165.764 88.4242C165.764 85.9628 165.764 83.5014 165.764 80.9654Z" fill="#ECECEC"/>
<path d="M70.7295 80.9654C71.939 80.9522 73.1484 80.9389 74.3946 80.9253C74.7746 80.9194 75.1546 80.9136 75.5462 80.9075C75.8495 80.9056 76.1528 80.904 76.4562 80.9027C76.6119 80.8994 76.7677 80.8961 76.9282 80.8927C77.8479 80.8922 78.5211 80.9691 79.217 81.6084C79.6272 82.1894 79.6591 82.7328 79.643 83.4249C79.6434 83.5152 79.6438 83.6056 79.6443 83.6987C79.6392 84.1878 79.5888 84.529 79.3456 84.952C79.3863 85.2934 79.4493 85.5451 79.6028 85.8522C79.6136 86.0479 79.6166 86.244 79.6154 86.4399C79.6147 86.6128 79.6147 86.6128 79.6141 86.7891C79.6125 86.9698 79.6125 86.9698 79.6109 87.1543C79.6103 87.2758 79.6097 87.3973 79.6091 87.5225C79.6076 87.8231 79.6053 88.1236 79.6028 88.4242C79.2209 88.4242 78.8389 88.4242 78.4454 88.4242C78.4391 88.2601 78.4328 88.096 78.4263 87.9269C78.4167 87.7122 78.407 87.4975 78.3972 87.2829C78.3932 87.1746 78.3892 87.0664 78.3851 86.9548C78.3777 86.7994 78.3777 86.7994 78.3701 86.6409C78.366 86.5452 78.362 86.4496 78.3578 86.3511C78.3356 86.0785 78.3356 86.0785 78.0596 85.8522C77.7844 85.8097 77.7844 85.8097 77.4638 85.8112C77.2784 85.8074 77.2784 85.8074 77.0894 85.8035C76.9557 85.802 76.822 85.8005 76.6842 85.799C76.5476 85.7965 76.4109 85.794 76.2701 85.7914C75.8325 85.7837 75.3949 85.7777 74.9572 85.7718C74.661 85.7669 74.3648 85.7619 74.0685 85.7568C73.3413 85.7442 72.6141 85.734 71.8869 85.7236C71.8869 86.6148 71.8869 87.506 71.8869 88.4242C71.5049 88.4242 71.123 88.4242 70.7295 88.4242C70.7295 85.9628 70.7295 83.5014 70.7295 80.9654Z" fill="#EBEBEB"/>
<path d="M116.896 81.094C117.886 81.0778 118.875 81.0624 119.865 81.0541C120.326 81.0501 120.787 81.0446 121.248 81.0358C121.692 81.0274 122.136 81.0228 122.581 81.0208C122.832 81.0187 123.083 81.0127 123.334 81.0066C124.611 81.0061 124.611 81.0061 125.165 81.4685C125.739 82.0589 125.665 82.5973 125.665 83.3847C125.667 83.5008 125.668 83.617 125.67 83.7366C125.671 84.3466 125.622 84.7712 125.384 85.3378C125.469 85.4651 125.554 85.5924 125.641 85.7236C125.67 86.0153 125.67 86.0153 125.666 86.352C125.665 86.4726 125.664 86.5932 125.664 86.7175C125.66 86.9058 125.66 86.9058 125.657 87.098C125.656 87.2251 125.655 87.3521 125.654 87.4831C125.65 87.7968 125.646 88.1105 125.641 88.4242C125.259 88.4242 124.877 88.4242 124.484 88.4242C124.441 87.5754 124.399 86.7267 124.355 85.8522C121.236 85.7885 121.236 85.7885 118.054 85.7236C118.054 86.6148 118.054 87.506 118.054 88.4242C117.672 88.4242 117.29 88.4242 116.896 88.4242C116.896 86.0052 116.896 83.5863 116.896 81.094Z" fill="#F2F2F2"/>
<path d="M152.132 80.9654C154.891 80.9654 157.649 80.9654 160.491 80.9654C160.491 81.3898 160.491 81.8142 160.491 82.2514C158.157 82.2514 155.823 82.2514 153.418 82.2514C153.418 82.888 153.418 83.5246 153.418 84.1804C155.455 84.1804 157.492 84.1804 159.591 84.1804C159.591 84.5624 159.591 84.9443 159.591 85.3378C157.554 85.3378 155.517 85.3378 153.418 85.3378C153.418 85.9744 153.418 86.6109 153.418 87.2668C155.752 87.2668 158.086 87.2668 160.491 87.2668C160.491 87.6487 160.491 88.0307 160.491 88.4242C157.733 88.4242 154.974 88.4242 152.132 88.4242C152.132 85.9628 152.132 83.5014 152.132 80.9654Z" fill="#E9E9E9"/>
<path d="M28.3743 80.926C28.4919 80.924 28.6096 80.9219 28.7308 80.9198C28.8571 80.9191 28.9834 80.9184 29.1136 80.9177C29.3101 80.916 29.3101 80.916 29.5105 80.9142C29.7877 80.9123 30.0649 80.9112 30.342 80.9107C30.764 80.9092 31.1858 80.9029 31.6077 80.8964C31.8775 80.8952 32.1472 80.8942 32.417 80.8936C32.5423 80.8911 32.6676 80.8886 32.7966 80.886C33.6369 80.8915 34.2031 81.0594 34.8503 81.6084C35.196 82.0514 35.2361 82.1923 35.2361 82.7658C35.0487 82.7762 34.8611 82.7837 34.6735 82.7899C34.5691 82.7944 34.4646 82.7989 34.357 82.8035C34.2652 82.7911 34.1733 82.7786 34.0787 82.7658C33.9938 82.6385 33.909 82.5112 33.8215 82.38C33.5583 82.323 33.5583 82.323 33.2513 82.3342C33.1333 82.3338 33.0153 82.3334 32.8938 82.333C32.7661 82.3346 32.6384 82.3362 32.5069 82.3378C32.311 82.3382 32.311 82.3382 32.111 82.3386C31.8346 82.3394 31.5582 82.3412 31.2818 82.3439C30.857 82.3479 30.4323 82.3491 30.0075 82.3499C29.7395 82.3511 29.4715 82.3524 29.2035 82.3539C29.0756 82.3545 28.9477 82.355 28.8159 82.3556C28.6983 82.3568 28.5807 82.358 28.4595 82.3593C28.3035 82.3606 28.3035 82.3606 28.1443 82.362C27.9039 82.3542 27.9039 82.3542 27.7774 82.5086C27.7647 82.7441 27.7607 82.9801 27.7613 83.2159C27.761 83.3446 27.7606 83.4732 27.7603 83.6057C27.7415 83.916 27.7415 83.916 27.906 84.0518C28.0913 84.0655 28.2773 84.0706 28.4632 84.0721C28.6409 84.0741 28.6409 84.0741 28.8223 84.0761C28.9514 84.077 29.0805 84.078 29.2136 84.0789C29.4851 84.0826 29.7566 84.0862 30.0281 84.09C30.4576 84.0953 30.8871 84.1 31.3166 84.1034C31.7302 84.107 32.1436 84.1129 32.5571 84.1191C32.7489 84.1198 32.7489 84.1198 32.9445 84.1204C33.8033 84.1356 34.3894 84.2427 35.0271 84.8636C35.4203 85.515 35.3303 86.4125 35.2361 87.1382C34.9921 87.6932 34.6133 88.1332 34.0787 88.4242C33.5934 88.5171 33.1169 88.5113 32.6239 88.5051C32.4842 88.5054 32.3444 88.5057 32.2003 88.506C31.9055 88.5059 31.6106 88.5042 31.3157 88.5009C30.8652 88.4965 30.4151 88.4983 29.9646 88.5008C29.6776 88.4999 29.3906 88.4987 29.1036 88.497C28.9693 88.4977 28.8351 88.4983 28.6968 88.499C27.9208 88.4864 27.4703 88.4229 26.8772 87.9098C26.4933 87.5127 26.4245 87.167 26.3628 86.6238C26.7872 86.6238 27.2115 86.6238 27.6488 86.6238C27.7337 86.7935 27.8185 86.9633 27.906 87.1382C28.7254 87.1447 29.5448 87.1492 30.3643 87.1523C30.6432 87.1536 30.9222 87.1554 31.2011 87.1576C31.6014 87.1607 32.0016 87.1622 32.4019 87.1633C32.5272 87.1646 32.6524 87.166 32.7815 87.1673C32.8973 87.1674 33.0132 87.1674 33.1325 87.1674C33.2347 87.168 33.337 87.1685 33.4423 87.1691C33.7233 87.1605 33.7233 87.1605 33.9501 86.881C33.9814 86.5672 33.9814 86.5672 33.9662 86.2219C33.9639 86.1049 33.9616 85.9879 33.9592 85.8673C33.9562 85.7774 33.9532 85.6876 33.9501 85.595C33.6458 85.4429 33.4605 85.4496 33.1211 85.4482C33.0026 85.4473 32.8841 85.4464 32.7621 85.4454C32.6336 85.4449 32.5051 85.4444 32.3728 85.4438C32.1017 85.4408 31.8306 85.4377 31.5595 85.4345C31.1314 85.43 30.7033 85.4262 30.2752 85.4245C29.8625 85.4225 29.4499 85.4173 29.0372 85.4117C28.9098 85.4119 28.7824 85.4121 28.6511 85.4124C27.8913 85.399 27.4584 85.3249 26.8772 84.8234C26.4594 84.3107 26.417 83.8096 26.4191 83.1677C26.4192 83.0761 26.4193 82.9845 26.4194 82.8901C26.4419 82.2216 26.5598 81.8296 27.044 81.3723C27.4903 81.0673 27.8304 80.9333 28.3743 80.926Z" fill="#EDEDED"/>
<path d="M40.5085 80.9654C41.4087 80.9654 41.4087 80.9654 41.7237 81.2543C41.8187 81.3897 41.9137 81.5252 42.0115 81.6647C42.0648 81.7389 42.1181 81.8131 42.173 81.8895C42.3498 82.1369 42.5221 82.387 42.6947 82.6372C42.8212 82.8156 42.9479 82.9938 43.075 83.1717C43.4656 83.7203 43.8519 84.2717 44.2379 84.8234C44.4783 85.1669 44.7194 85.5098 44.9613 85.8522C45.0145 85.9285 45.0677 86.0049 45.1225 86.0835C45.3936 86.4814 45.3936 86.4814 45.7811 86.7524C45.8119 86.6616 45.8428 86.5707 45.8745 86.4771C46.0652 86.049 46.3079 85.7359 46.6009 85.37C47.1304 84.6993 47.6306 84.0127 48.12 83.3124C48.2509 83.127 48.3818 82.9416 48.5128 82.7563C48.7234 82.4579 48.93 82.1583 49.1337 81.8551C49.2446 81.6972 49.2446 81.6972 49.3578 81.5361C49.4169 81.4484 49.4761 81.3607 49.5371 81.2704C49.7677 81.094 49.7677 81.094 50.6679 81.094C50.6679 83.513 50.6679 85.9319 50.6679 88.4242C50.2859 88.4242 49.904 88.4242 49.5105 88.4242C49.468 86.8964 49.4256 85.3687 49.3819 83.7946C48.2433 85.3039 48.2433 85.3039 47.1314 86.8328C47.055 86.9397 47.055 86.9397 46.977 87.0488C46.7347 87.3898 46.5125 87.7242 46.3075 88.0896C46.0383 88.4242 46.0383 88.4242 45.6746 88.5417C45.0202 88.3531 44.7699 87.8617 44.3987 87.315C44.3207 87.2044 44.2428 87.0938 44.1624 86.9799C44.0041 86.755 43.8467 86.5294 43.6904 86.3031C43.4883 86.0124 43.2821 85.7256 43.0725 85.4403C43.0136 85.3598 42.9547 85.2794 42.894 85.1965C42.7858 85.0486 42.6774 84.9009 42.5688 84.7533C42.2884 84.3633 42.0806 83.9915 41.9231 83.5374C41.8383 83.5374 41.7534 83.5374 41.6659 83.5374C41.6659 85.1501 41.6659 86.7627 41.6659 88.4242C41.284 88.4242 40.9021 88.4242 40.5085 88.4242C40.5085 85.9628 40.5085 83.5014 40.5085 80.9654Z" fill="#EFEFEF"/>
<path d="M102.75 80.9655C104.402 80.9495 104.402 80.9495 106.086 80.9333C106.431 80.9286 106.777 80.9239 107.132 80.9191C107.409 80.9176 107.686 80.9163 107.962 80.9152C108.104 80.9126 108.245 80.91 108.39 80.9072C109.386 80.9068 110.254 81.0363 111.001 81.7416C111.058 81.8276 111.115 81.9136 111.174 82.0023C111.263 82.1318 111.263 82.1318 111.355 82.264C111.764 82.9759 111.653 83.7945 111.656 84.5903C111.659 84.7456 111.661 84.9008 111.664 85.0608C111.668 86.0565 111.662 86.8971 110.989 87.6883C110.901 87.7587 110.814 87.8292 110.724 87.9018C110.636 87.9745 110.549 88.0473 110.458 88.1223C110.019 88.4278 109.65 88.44 109.13 88.4388C108.915 88.4388 108.915 88.4388 108.695 88.4387C108.545 88.4381 108.394 88.4374 108.239 88.4367C108.031 88.4365 108.031 88.4365 107.818 88.4364C107.3 88.4357 106.781 88.4339 106.263 88.4322C105.104 88.4296 103.945 88.4269 102.75 88.4242C102.75 85.9628 102.75 83.5014 102.75 80.9655ZM103.908 82.2514C103.908 83.9065 103.908 85.5616 103.908 87.2668C104.684 87.2757 105.459 87.2833 106.235 87.288C106.499 87.2899 106.763 87.2926 107.027 87.2959C107.406 87.3006 107.786 87.3028 108.165 87.3045C108.283 87.3065 108.4 87.3085 108.522 87.3105C109.146 87.3107 109.58 87.2975 110.081 86.881C110.514 86.2315 110.391 85.4737 110.394 84.7109C110.398 84.5463 110.403 84.3817 110.407 84.2121C110.408 84.0534 110.409 83.8948 110.41 83.7313C110.411 83.5863 110.413 83.4413 110.415 83.2918C110.308 82.7413 110.158 82.5678 109.695 82.2514C109.25 82.1659 108.817 82.1765 108.366 82.1886C108.175 82.19 108.175 82.19 107.98 82.1914C107.573 82.195 107.167 82.2031 106.761 82.2113C106.485 82.2145 106.209 82.2174 105.934 82.22C105.258 82.2266 104.583 82.2392 103.908 82.2514Z" fill="#EDEDED"/>
<path d="M60.7421 80.9178C61.0844 80.9655 61.0844 80.9655 61.3199 81.2256C61.3945 81.349 61.4692 81.4723 61.546 81.5994C61.6344 81.7406 61.7227 81.8818 61.8137 82.0273C61.8615 82.1049 61.9093 82.1825 61.9586 82.2624C62.2372 82.7062 62.5343 83.1375 62.829 83.5706C62.9564 83.7589 63.0837 83.9473 63.211 84.1357C63.275 84.2304 63.3391 84.325 63.405 84.4225C63.6003 84.7113 63.7955 85.0002 63.9907 85.2891C64.1178 85.4771 64.245 85.6652 64.3722 85.8532C64.4332 85.9434 64.4941 86.0337 64.557 86.1267C64.9704 86.737 65.3928 87.3403 65.8259 87.9369C65.9711 88.167 65.9711 88.167 65.9711 88.4242C65.4783 88.5044 65.0461 88.5344 64.5565 88.4242C64.1578 88.0485 63.8929 87.6307 63.6564 87.1382C63.6564 87.0533 63.6564 86.9684 63.6564 86.881C62.851 86.8634 62.046 86.8571 61.2404 86.8582C60.9667 86.8573 60.6931 86.8539 60.4195 86.8479C58.8533 86.7459 58.8533 86.7459 57.4821 87.3317C57.2111 87.7093 57.2111 87.7093 57.037 88.1115C56.8406 88.4242 56.8406 88.4242 56.4543 88.5148C56.1012 88.5128 55.7732 88.4874 55.426 88.4242C56.6699 86.4275 58.0028 84.4866 59.3242 82.5408C59.3728 82.4691 59.4214 82.3974 59.4715 82.3236C59.6093 82.1206 59.7473 81.9178 59.8853 81.7149C59.9647 81.5981 60.0442 81.4813 60.1261 81.3609C60.3979 80.9723 60.3979 80.9723 60.7421 80.9178Z" fill="#ECECEC"/>
<path d="M80.6316 73.2495C82.2254 73.2949 83.799 73.4697 85.3803 73.6624C86.6666 73.8189 87.9513 73.9617 89.2435 74.0618C90.0314 74.1237 90.8159 74.2079 91.601 74.2967C93.066 74.4615 94.5327 74.6096 95.9992 74.7606C96.3285 74.7945 96.6579 74.8285 96.9873 74.8625C97.584 74.9241 98.1807 74.9857 98.7775 75.0472C100.291 75.2033 101.805 75.36 103.319 75.5166C104.092 75.5967 104.866 75.6767 105.639 75.7567C105.793 75.7726 105.946 75.7885 106.104 75.8049C107.05 75.9026 107.995 76.0004 108.94 76.0981C113.007 76.5184 117.074 76.9403 121.14 77.3647C121.055 77.5769 120.97 77.7891 120.883 78.0077C121.557 78.3089 122.238 78.5545 122.941 78.7793C122.941 78.8217 122.941 78.8642 122.941 78.9079C122.094 78.9419 121.285 78.8103 120.449 78.6828C119.079 78.4803 117.709 78.2993 116.334 78.1363C113.837 77.8389 111.346 77.5047 108.855 77.1592C108.304 77.083 107.754 77.0068 107.203 76.9307C107.064 76.9114 106.924 76.8921 106.78 76.8722C104.437 76.5488 102.091 76.2481 99.7425 75.958C99.4908 75.9269 99.2392 75.8958 98.9876 75.8647C98.8669 75.8498 98.7463 75.8349 98.622 75.8195C97.1548 75.6377 95.6899 75.4404 94.2248 75.2425C93.4331 75.1361 92.6411 75.032 91.8491 74.9279C91.5541 74.8891 91.2592 74.8501 90.9642 74.8111C89.8507 74.6641 88.737 74.5192 87.6228 74.3773C86.9048 74.2858 86.1869 74.1936 85.469 74.1011C85.0194 74.0432 84.5697 73.9857 84.12 73.9291C83.6129 73.8652 83.1061 73.7998 82.5993 73.7343C82.4452 73.7151 82.2911 73.696 82.1323 73.6763C81.9202 73.6485 81.9202 73.6485 81.7037 73.6202C81.58 73.6044 81.4562 73.5886 81.3287 73.5724C81.0174 73.5067 81.0174 73.5067 80.6316 73.2495Z" fill="#EAEAEA"/>
<path d="M143.155 66.7553C143.286 66.7557 143.286 66.7557 143.419 66.7561C144.867 66.7653 146.16 66.9089 147.503 67.4626C147.644 67.5194 147.644 67.5194 147.787 67.5774C150.396 68.659 152.751 70.5289 154.19 72.9923C154.19 73.1196 154.19 73.247 154.19 73.3781C153.776 73.3388 153.591 73.2943 153.295 72.9918C153.217 72.8832 153.138 72.7747 153.057 72.6628C151.028 70.0077 148.049 68.5525 144.802 67.977C141.138 67.7519 137.537 68.5638 134.709 71.0181C134.158 71.5334 133.623 72.0628 133.1 72.6065C132.973 72.5641 132.845 72.5217 132.714 72.4779C132.988 71.6694 133.553 71.1589 134.129 70.5489C134.254 70.405 134.254 70.405 134.381 70.2581C136.564 67.855 139.996 66.7396 143.155 66.7553Z" fill="#ECECEC"/>
<path d="M59.5573 66.4589C59.9094 66.738 60.2413 67.0278 60.57 67.334C60.6917 67.4469 60.8134 67.5598 60.9388 67.6761C61.8567 68.5502 62.6977 69.4743 63.142 70.6775C62.9723 70.6775 62.8025 70.6775 62.6276 70.6775C62.3718 70.4102 62.1476 70.1477 61.9203 69.8577C60.2458 67.8266 58.1772 66.5769 55.6833 65.7908C55.4938 65.7234 55.4938 65.7234 55.3005 65.6547C52.3044 64.7218 48.9115 65.2851 46.171 66.6915C44.6799 67.4839 43.4453 68.4542 42.2929 69.6935C42.0518 69.906 42.0518 69.906 41.666 69.906C41.918 68.5184 43.5524 67.23 44.6415 66.4524C49.1688 63.3652 55.0287 63.2775 59.5573 66.4589Z" fill="#EDEDED"/>
<path d="M136.958 80.9654C137.472 80.8234 137.86 80.8056 138.372 80.9654C138.991 81.5115 139.39 82.3001 139.811 82.9989C139.932 83.1917 140.053 83.3842 140.174 83.5764C140.352 83.8576 140.53 84.1391 140.705 84.4219C141.178 85.184 141.687 85.9095 142.23 86.6238C142.324 86.4844 142.418 86.3449 142.515 86.2013C142.866 85.6809 143.217 85.1606 143.569 84.6403C143.72 84.4157 143.872 84.1911 144.023 83.9664C144.242 83.6424 144.46 83.3184 144.679 82.9944C144.746 82.895 144.813 82.7955 144.882 82.6931C145.009 82.5052 145.137 82.3177 145.264 82.1305C145.385 81.9539 145.504 81.7765 145.623 81.5984C146.047 80.9753 146.047 80.9753 146.461 80.8775C146.584 80.888 146.708 80.8984 146.836 80.9092C146.961 80.9173 147.087 80.9254 147.216 80.9338C147.311 80.9442 147.405 80.9547 147.503 80.9654C147.288 81.4293 147.015 81.8412 146.73 82.2655C146.654 82.3805 146.654 82.3805 146.575 82.4977C146.292 82.9211 146.008 83.3435 145.724 83.766C145.606 83.9413 145.489 84.1166 145.371 84.2919C145.312 84.3795 145.253 84.467 145.193 84.5572C144.812 85.1264 144.44 85.7008 144.073 86.2792C143.981 86.422 143.89 86.5647 143.795 86.7118C143.623 86.9806 143.453 87.2508 143.285 87.5224C143.208 87.6419 143.131 87.7615 143.051 87.8847C142.985 87.9894 142.92 88.0942 142.852 88.2021C142.616 88.4242 142.616 88.4242 142.22 88.4749C141.845 88.4242 141.845 88.4242 141.569 88.1524C141.48 88.0166 141.39 87.8809 141.298 87.741C141.246 87.664 141.194 87.587 141.141 87.5076C141.018 87.3247 140.897 87.1409 140.776 86.9565C140.522 86.5687 140.264 86.1837 140.006 85.799C139.553 85.1235 139.103 84.4462 138.653 83.7681C138.374 83.3465 138.092 82.9263 137.809 82.5076C137.748 82.4174 137.687 82.3271 137.624 82.2341C137.515 82.074 137.407 81.9141 137.297 81.7546C136.958 81.2513 136.958 81.2513 136.958 80.9654Z" fill="#ECECEC"/>
<path d="M83.9751 80.9654C86.6062 80.9654 89.2374 80.9654 91.9482 80.9654C91.9482 81.3898 91.9482 81.8142 91.9482 82.2514C90.8448 82.2514 89.7415 82.2514 88.6047 82.2514C88.6047 84.2884 88.6047 86.3254 88.6047 88.4242C88.1803 88.4242 87.7559 88.4242 87.3187 88.4242C87.3187 86.3872 87.3187 84.3502 87.3187 82.2514C86.2153 82.2514 85.1119 82.2514 83.9751 82.2514C83.9751 81.8271 83.9751 81.4027 83.9751 80.9654Z" fill="#E2E2E2"/>
<path d="M117.746 58.8589C118.188 59.0161 118.624 59.1873 119.059 59.363C119.334 59.4741 119.609 59.5822 119.886 59.6899C120.061 59.7592 120.237 59.8287 120.412 59.8983C120.495 59.9308 120.577 59.9632 120.662 59.9966C121.012 60.1387 121.256 60.2481 121.526 60.5182C121.569 60.8066 121.569 60.8066 121.574 61.1452C121.578 61.2562 121.582 61.3673 121.585 61.4817C121.526 61.8042 121.526 61.8042 121.348 62.1006C120.821 62.4421 120.307 62.3731 119.693 62.3508C119.573 62.3484 119.453 62.3461 119.329 62.3437C119.032 62.3377 118.736 62.3292 118.44 62.3186C118.44 62.1064 118.44 61.8942 118.44 61.6756C118.349 61.6708 118.259 61.666 118.165 61.6611C115.588 61.4895 115.588 61.4895 114.71 60.904C114.585 60.459 114.589 60.0633 114.71 59.618C115.053 59.2731 115.433 59.0591 115.868 58.8464C116.483 58.5387 117.116 58.6674 117.746 58.8589Z" fill="#F2F2F2"/>
<path d="M72.144 60.6468C71.9514 61.1471 71.6676 61.3502 71.2277 61.6435C71.0522 61.7618 71.0522 61.7618 70.8731 61.8826C70.7383 61.9711 70.7383 61.9711 70.6008 62.0614C70.6793 62.4375 70.7952 62.7205 70.9971 63.0465C71.0526 63.1367 71.108 63.2268 71.1651 63.3198C71.2256 63.4164 71.286 63.5131 71.3483 63.6126C71.4113 63.7145 71.4743 63.8164 71.5392 63.9214C72.1841 64.9615 72.8382 65.9959 73.4939 67.0293C73.808 67.5244 74.1214 68.0199 74.4347 68.5155C74.4966 68.6133 74.5585 68.7111 74.6222 68.8119C74.9968 69.4046 75.3685 69.9989 75.7382 70.5947C75.8247 70.7338 75.9112 70.8729 76.0003 71.0163C76.1695 71.2886 76.3383 71.5612 76.5067 71.834C76.6229 72.021 76.6229 72.021 76.7414 72.2117C76.8097 72.3221 76.878 72.4325 76.9484 72.5462C77.3668 73.176 77.7577 73.5989 78.3991 74.006C78.5367 74.0951 78.6743 74.1841 78.8161 74.2758C79.0338 74.4145 79.2516 74.5532 79.4697 74.6914C79.6816 74.8262 79.8923 74.9626 80.1031 75.0991C80.2291 75.1792 80.3551 75.2593 80.485 75.3418C80.6212 75.452 80.6212 75.452 80.7601 75.5643C80.7601 75.6916 80.7601 75.8189 80.7601 75.9501C79.9835 75.653 79.2645 75.2594 78.5337 74.865C78.3919 74.7922 78.2501 74.7193 78.104 74.6443C77.0743 74.0842 76.4841 73.4725 75.8734 72.4779C75.8207 72.3968 75.7679 72.3157 75.7136 72.2322C75.5781 72.0218 75.4484 71.8078 75.3188 71.5938C74.7004 70.5872 74.0545 69.5992 73.4059 68.6119C73.3531 68.5317 73.3004 68.4514 73.2461 68.3687C73.0331 68.0444 72.8201 67.7201 72.607 67.3959C71.8747 66.2817 71.1466 65.1648 70.4198 64.047C70.2272 63.7519 70.0332 63.4578 69.8388 63.1641C69.7311 63.0001 69.6234 62.8362 69.5158 62.6723C69.4257 62.5363 69.3357 62.4004 69.243 62.2603C69.0576 61.9328 69.0576 61.9328 69.0576 61.547C69.4751 61.3957 69.8932 61.2461 70.3115 61.0969C70.4298 61.054 70.5482 61.0111 70.6701 60.9668C70.7845 60.9262 70.8989 60.8856 71.0167 60.8438C71.1218 60.806 71.2269 60.7683 71.3351 60.7295C71.6296 60.6468 71.6296 60.6468 72.144 60.6468Z" fill="#EBEBEB"/>
<path d="M166.921 82.2514C167.796 82.2451 168.67 82.2404 169.545 82.2373C169.842 82.236 170.14 82.2343 170.437 82.232C170.865 82.2289 171.292 82.2275 171.719 82.2263C171.852 82.225 171.986 82.2237 172.124 82.2223C172.247 82.2223 172.371 82.2223 172.498 82.2222C172.662 82.2214 172.662 82.2214 172.829 82.2205C173.094 82.2514 173.094 82.2514 173.351 82.5086C173.385 82.9185 173.385 82.9185 173.383 83.4088C173.384 83.6515 173.384 83.6515 173.385 83.8991C173.351 84.309 173.351 84.309 173.094 84.5662C172.829 84.5972 172.829 84.5972 172.498 84.5954C172.375 84.5954 172.251 84.5954 172.124 84.5954C171.99 84.594 171.856 84.5927 171.719 84.5913C171.582 84.591 171.445 84.5906 171.305 84.5902C170.867 84.5888 170.429 84.5856 169.992 84.5823C169.695 84.581 169.399 84.5798 169.103 84.5788C168.376 84.5759 167.649 84.5715 166.921 84.5662C166.921 83.8023 166.921 83.0385 166.921 82.2514Z" fill="#010101"/>
<path d="M118.054 82.2514C118.928 82.2451 119.802 82.2404 120.677 82.2373C120.975 82.236 121.272 82.2343 121.57 82.232C121.997 82.2289 122.424 82.2275 122.851 82.2263C122.985 82.225 123.118 82.2237 123.256 82.2223C123.38 82.2223 123.503 82.2223 123.631 82.2222C123.794 82.2214 123.794 82.2214 123.961 82.2205C124.226 82.2514 124.226 82.2514 124.484 82.5086C124.518 82.9185 124.518 82.9185 124.516 83.4088C124.517 83.6515 124.517 83.6515 124.518 83.8991C124.484 84.309 124.484 84.309 124.226 84.5662C123.961 84.5972 123.961 84.5972 123.631 84.5954C123.507 84.5954 123.383 84.5954 123.256 84.5954C123.122 84.594 122.989 84.5927 122.851 84.5913C122.714 84.591 122.578 84.5906 122.437 84.5902C121.999 84.5888 121.562 84.5856 121.124 84.5823C120.828 84.581 120.532 84.5798 120.235 84.5788C119.508 84.5759 118.781 84.5715 118.054 84.5662C118.054 83.8023 118.054 83.0385 118.054 82.2514Z" fill="black"/>
<path d="M72.0154 82.2514C72.8898 82.2419 73.7641 82.2349 74.6385 82.2302C74.9362 82.2283 75.2338 82.2257 75.5314 82.2223C75.9585 82.2177 76.3856 82.2155 76.8127 82.2138C77.0133 82.2108 77.0133 82.2108 77.2179 82.2077C77.3414 82.2077 77.465 82.2077 77.5923 82.2076C77.7014 82.2068 77.8105 82.2059 77.9229 82.205C78.0542 82.228 78.0542 82.228 78.1881 82.2514C78.4836 82.6947 78.4836 82.8859 78.4855 83.4088C78.4877 83.5441 78.4898 83.6794 78.492 83.8187C78.4453 84.1804 78.4453 84.1804 78.2869 84.3932C77.9932 84.6167 77.8276 84.613 77.4609 84.61C77.3399 84.61 77.2189 84.61 77.0943 84.6099C76.899 84.6069 76.899 84.6069 76.6997 84.6039C76.5661 84.6034 76.4325 84.6028 76.2948 84.6022C75.8676 84.6001 75.4405 84.5952 75.0133 84.5903C74.7239 84.5884 74.4345 84.5866 74.145 84.5851C73.4351 84.5808 72.7253 84.5741 72.0154 84.5662C72.0154 83.8023 72.0154 83.0385 72.0154 82.2514Z" fill="#010101"/>
<path d="M34.7217 61.4184C35.5704 61.4609 36.4192 61.5033 37.2937 61.547C37.3573 61.6743 37.3573 61.6743 37.4223 61.8042C37.2609 62.1023 37.0922 62.3806 36.9079 62.6642C36.8508 62.7537 36.7938 62.8431 36.735 62.9353C36.5368 63.245 36.3367 63.5535 36.1363 63.8618C36.061 63.9778 35.9858 64.0937 35.9083 64.2132C35.5 64.8418 35.0905 65.4696 34.68 66.0967C34.2741 66.7169 33.8702 67.3384 33.4678 67.9609C33.412 68.0473 33.3561 68.1338 33.2985 68.2228C33.0681 68.5792 32.8379 68.9357 32.6078 69.2922C31.235 71.4185 31.235 71.4185 30.6065 72.3493C30.4779 71.9635 30.4779 71.9635 30.5825 71.6834C30.6388 71.5749 30.6952 71.4664 30.7532 71.3547C30.816 71.2319 30.8788 71.109 30.9435 70.9825C31.0472 70.7838 31.0472 70.7838 31.1531 70.5811C31.2966 70.3004 31.4399 70.0196 31.5831 69.7387C31.6563 69.5953 31.7296 69.452 31.8051 69.3043C32.1335 68.6549 32.4481 67.9992 32.7605 67.342C32.8182 67.2207 32.8759 67.0993 32.9354 66.9743C33.048 66.7371 33.1606 66.4997 33.273 66.2624C33.4321 65.927 33.5923 65.5921 33.7527 65.2573C33.848 65.0574 33.9433 64.8575 34.0385 64.6575C34.0821 64.5668 34.1258 64.476 34.1707 64.3825C34.3908 63.9484 34.3908 63.9484 34.4645 63.476C34.3372 63.4336 34.2099 63.3911 34.0787 63.3474C34.146 62.54 34.328 62.2057 34.7217 61.4184Z" fill="#D72326"/>
<path d="M146.345 95.7543C146.895 95.7405 147.444 95.7303 147.993 95.7222C148.149 95.7179 148.306 95.7135 148.467 95.7091C148.691 95.7066 148.691 95.7066 148.92 95.7041C149.127 95.7 149.127 95.7 149.338 95.6959C149.689 95.7543 149.689 95.7543 149.927 95.9845C150.149 96.4103 150.136 96.8287 150.131 97.2975C150.135 97.4348 150.135 97.4348 150.139 97.5748C150.138 97.9996 150.12 98.2668 149.861 98.6105C149.481 98.9013 149.281 98.9006 148.807 98.8909C148.664 98.8893 148.52 98.8876 148.372 98.8859C148.149 98.8794 148.149 98.8794 147.921 98.8728C147.77 98.8705 147.619 98.8682 147.463 98.8658C147.091 98.8598 146.718 98.8505 146.345 98.8407C146.345 97.8222 146.345 96.8037 146.345 95.7543Z" fill="#B1292C"/>
<path d="M130.134 95.6739C130.249 95.6715 130.364 95.669 130.482 95.6664C131.049 95.6706 131.348 95.7 131.825 96.0246C132.126 96.4814 132.157 96.7532 132.151 97.2975C132.153 97.4513 132.155 97.6052 132.156 97.7637C132.045 98.3316 131.905 98.5127 131.428 98.8407C131.018 98.9313 130.625 98.9307 130.206 98.9211C130.098 98.9235 129.99 98.926 129.878 98.9286C129.329 98.9243 129.054 98.8881 128.591 98.5704C128.284 98.1122 128.259 97.8457 128.269 97.2975C128.269 97.1437 128.269 96.9898 128.269 96.8313C128.462 95.681 129.123 95.6522 130.134 95.6739Z" fill="#0C0000"/>
<path d="M58.1266 95.69C58.2426 95.688 58.3587 95.686 58.4782 95.684C58.9755 95.6869 59.3127 95.6953 59.7456 95.9512C59.9988 96.3945 60.0069 96.8006 59.9993 97.2975C60.0024 97.389 60.0054 97.4805 60.0086 97.5748C60.0073 98.03 59.9607 98.2833 59.6778 98.6438C59.1282 98.9186 58.6605 98.9161 58.0542 98.905C57.9449 98.907 57.8356 98.909 57.7229 98.911C57.2417 98.908 56.9294 98.8938 56.5116 98.6438C56.2529 98.2008 56.251 97.796 56.2619 97.2975C56.2599 97.206 56.2579 97.1145 56.2559 97.0202C56.2589 96.6074 56.3018 96.3115 56.507 95.9512C57.0297 95.6427 57.531 95.6798 58.1266 95.69Z" fill="#110000"/>
<path d="M131.042 81.094C131.424 81.094 131.806 81.094 132.2 81.094C132.2 83.513 132.2 85.9319 132.2 88.4242C131.818 88.4242 131.436 88.4242 131.042 88.4242C131.042 86.0052 131.042 83.5863 131.042 81.094Z" fill="#F3F3F3"/>
<path d="M66.8713 95.7543C67.4206 95.7439 67.9697 95.7363 68.519 95.7302C68.7534 95.7254 68.7534 95.7254 68.9925 95.7204C69.2169 95.7186 69.2169 95.7186 69.4458 95.7166C69.5839 95.7146 69.7219 95.7126 69.8642 95.7105C70.2149 95.7543 70.2149 95.7543 70.4535 95.9103C70.6476 96.2133 70.6449 96.4101 70.6384 96.7685C70.6371 96.8891 70.6359 97.0097 70.6346 97.134C70.6314 97.2596 70.6281 97.3851 70.6248 97.5145C70.6222 97.7051 70.6222 97.7051 70.6195 97.8996C70.615 98.2133 70.6086 98.527 70.6007 98.8407C70.431 98.8407 70.2612 98.8407 70.0863 98.8407C70.0439 98.5012 70.0014 98.1617 69.9577 97.8119C69.109 97.7695 68.2602 97.727 67.3857 97.6833C67.3857 98.0652 67.3857 98.4472 67.3857 98.8407C67.216 98.8407 67.0462 98.8407 66.8713 98.8407C66.8713 97.8222 66.8713 96.8037 66.8713 95.7543Z" fill="#B8292C"/>
<path d="M157.148 67.0768C157.662 67.2797 157.949 67.6167 158.313 68.0252C158.374 68.0928 158.435 68.1604 158.498 68.2301C158.756 68.5171 159.013 68.8057 159.27 69.0944C159.457 69.3039 159.644 69.5125 159.832 69.7211C159.943 69.8459 160.054 69.9707 160.169 70.0993C160.696 70.6241 161.132 70.8439 161.866 70.9428C162.011 70.9627 162.155 70.9826 162.305 71.0031C162.982 71.0845 163.659 71.1613 164.337 71.2309C164.781 71.2772 165.205 71.3339 165.635 71.4491C165.635 71.534 165.635 71.6189 165.635 71.7063C164.876 71.7608 164.118 71.8002 163.357 71.8264C163.1 71.8373 162.842 71.8522 162.584 71.8713C160.511 72.0207 160.511 72.0207 159.843 71.5031C159.368 70.9867 159.028 70.4011 158.703 69.7825C158.529 69.4576 158.322 69.1655 158.102 68.8701C157.988 68.7064 157.873 68.5427 157.759 68.3788C157.698 68.2938 157.638 68.2088 157.575 68.1211C157.148 67.5067 157.148 67.5067 157.148 67.0768Z" fill="#DA2226"/>
<path d="M106.223 95.7543C107.368 95.7543 108.514 95.7543 109.695 95.7543C109.695 95.9241 109.695 96.0938 109.695 96.2687C108.719 96.2687 107.743 96.2687 106.737 96.2687C106.737 96.5233 106.737 96.778 106.737 97.0403C107.628 97.0403 108.519 97.0403 109.438 97.0403C109.438 97.2101 109.438 97.3798 109.438 97.5547C108.546 97.5547 107.655 97.5547 106.737 97.5547C106.737 97.8093 106.737 98.064 106.737 98.3263C107.713 98.3263 108.689 98.3263 109.695 98.3263C109.695 98.496 109.695 98.6658 109.695 98.8407C108.549 98.8407 107.403 98.8407 106.223 98.8407C106.223 97.8222 106.223 96.8037 106.223 95.7543Z" fill="#BC282B"/>
<path d="M60.5702 82.7658C60.9929 82.9068 61.0332 82.9559 61.2614 83.3109C61.3164 83.3952 61.3715 83.4795 61.4282 83.5663C61.5127 83.6992 61.5127 83.6992 61.5989 83.8348C61.7113 84.0085 61.8239 84.1822 61.9365 84.3557C61.9891 84.4374 62.0416 84.5191 62.0958 84.6032C62.2149 84.7827 62.3437 84.9556 62.475 85.1263C62.6277 85.3378 62.6277 85.3378 62.6277 85.595C61.3546 85.595 60.0815 85.595 58.7698 85.595C59.3699 84.652 59.97 83.7089 60.5702 82.7658Z" fill="#040404"/>
<path d="M98.1208 95.7543C98.4869 95.7976 98.6137 95.858 98.8589 96.1413C98.9316 96.2522 99.0043 96.363 99.0793 96.4772C99.1588 96.5975 99.2384 96.7177 99.3204 96.8416C99.402 96.9682 99.4835 97.0948 99.5676 97.2252C99.6511 97.3512 99.7346 97.4773 99.8207 97.6072C100.436 98.5456 100.436 98.5456 100.436 98.8407C100.13 98.8005 100.13 98.8005 99.7926 98.7121C99.7077 98.5848 99.6228 98.4575 99.5354 98.3263C99.1364 98.2425 98.7285 98.2667 98.3217 98.27C98.2096 98.2675 98.0975 98.2649 97.9819 98.2622C97.6758 98.2625 97.3928 98.2687 97.092 98.3263C96.86 98.575 96.86 98.575 96.7062 98.8407C96.3606 98.8728 96.3606 98.8728 96.0632 98.8407C96.7184 97.7894 97.41 96.7682 98.1208 95.7543Z" fill="#C2272A"/>
<path d="M90.405 95.7543C91.0315 95.9109 91.2058 96.197 91.5624 96.6947C91.9226 97.1875 92.2723 97.6495 92.7198 98.0691C92.7492 98.0035 92.7785 97.9378 92.8087 97.8702C93.0435 97.4301 93.3251 97.0297 93.612 96.6224C93.6689 96.5388 93.7258 96.4553 93.7845 96.3692C93.9341 96.1569 94.0977 95.9547 94.263 95.7543C94.3903 95.7543 94.5176 95.7543 94.6488 95.7543C94.6488 96.7728 94.6488 97.7913 94.6488 98.8407C94.5215 98.8407 94.3942 98.8407 94.263 98.8407C94.2206 98.2041 94.1781 97.5676 94.1344 96.9117C93.9879 97.1206 93.9879 97.1206 93.8385 97.3337C93.7095 97.5146 93.5804 97.6954 93.4512 97.8762C93.387 97.9682 93.3227 98.0602 93.2566 98.155C93.194 98.242 93.1314 98.3291 93.0669 98.4187C93.0097 98.4995 92.9524 98.5804 92.8935 98.6636C92.8362 98.7221 92.7789 98.7805 92.7198 98.8407C92.5925 98.8407 92.4652 98.8407 92.334 98.8407C92.0945 98.545 91.8794 98.2546 91.6669 97.9405C91.6073 97.8546 91.5477 97.7688 91.4863 97.6803C91.3391 97.4678 91.1934 97.2541 91.048 97.0403C91.0056 97.6344 90.9631 98.2286 90.9194 98.8407C90.7497 98.8407 90.5799 98.8407 90.405 98.8407C90.405 97.8222 90.405 96.8037 90.405 95.7543Z" fill="#BF2A2D"/>
<path d="M115.096 95.7543C115.223 95.7543 115.351 95.7543 115.482 95.7543C115.703 96.0258 115.703 96.0258 115.941 96.4013C116.027 96.5348 116.113 96.6682 116.201 96.8057C116.29 96.9468 116.379 97.0879 116.47 97.2332C116.561 97.3743 116.651 97.5153 116.744 97.6607C116.967 98.0104 117.19 98.3609 117.411 98.7121C117.241 98.7545 117.071 98.797 116.896 98.8407C116.845 98.7574 116.794 98.6742 116.741 98.5884C116.535 98.3043 116.535 98.3043 116.231 98.2561C116.125 98.2534 116.019 98.2507 115.91 98.2479C115.795 98.2438 115.681 98.2396 115.562 98.2354C115.443 98.2335 115.323 98.2317 115.2 98.2298C115.079 98.226 114.959 98.2222 114.834 98.2183C114.535 98.2092 114.237 98.2024 113.939 98.1977C113.811 98.516 113.811 98.516 113.681 98.8407C113.469 98.8407 113.257 98.8407 113.038 98.8407C113.434 98.0627 113.896 97.3538 114.405 96.6465C114.466 96.5591 114.528 96.4717 114.591 96.3817C114.75 96.1651 114.922 95.9587 115.096 95.7543Z" fill="#AF2528"/>
<path d="M130.134 95.6739C130.249 95.6715 130.364 95.669 130.482 95.6664C131.049 95.6706 131.348 95.7 131.825 96.0246C132.126 96.4814 132.157 96.7532 132.151 97.2975C132.153 97.4513 132.155 97.6052 132.156 97.7637C132.045 98.3316 131.905 98.5127 131.428 98.8407C131.018 98.9313 130.625 98.9307 130.206 98.9211C130.098 98.9235 129.99 98.926 129.878 98.9286C129.329 98.9243 129.054 98.8881 128.591 98.5704C128.284 98.1122 128.259 97.8457 128.269 97.2975C128.269 97.1437 128.269 96.9898 128.269 96.8313C128.462 95.681 129.123 95.6522 130.134 95.6739ZM128.856 96.3973C128.843 96.673 128.839 96.9492 128.84 97.2252C128.84 97.3762 128.839 97.5272 128.839 97.6828C128.829 98.0593 128.829 98.0593 128.985 98.3263C129.365 98.3332 129.745 98.3383 130.126 98.3424C130.288 98.3456 130.288 98.3456 130.454 98.3489C130.558 98.3497 130.661 98.3506 130.768 98.3514C130.864 98.3528 130.959 98.3541 131.058 98.3555C131.331 98.3477 131.331 98.3477 131.557 98.0691C131.593 97.6713 131.593 97.6713 131.581 97.2252C131.58 97.0738 131.579 96.9225 131.578 96.7665C131.598 96.4106 131.598 96.4106 131.428 96.2687C131.248 96.256 131.066 96.2519 130.885 96.2516C130.776 96.2515 130.667 96.2513 130.554 96.2511C130.44 96.2516 130.325 96.2521 130.206 96.2526C130.034 96.2519 130.034 96.2519 129.858 96.2511C129.694 96.2514 129.694 96.2514 129.527 96.2516C129.376 96.2518 129.376 96.2518 129.221 96.2521C128.982 96.2429 128.982 96.2429 128.856 96.3973Z" fill="#C7282B"/>
<path d="M146.345 95.7543C146.9 95.7509 147.455 95.7483 148.009 95.7463C148.168 95.7452 148.326 95.7441 148.489 95.743C148.64 95.7426 148.79 95.7422 148.945 95.7418C149.154 95.7408 149.154 95.7408 149.368 95.7397C149.689 95.7543 149.689 95.7543 149.818 95.8829C149.836 96.2264 149.823 96.5676 149.818 96.9117C149.733 96.9117 149.648 96.9117 149.56 96.9117C149.56 96.6995 149.56 96.4873 149.56 96.2687C148.669 96.2687 147.778 96.2687 146.86 96.2687C146.86 96.5658 146.86 96.8628 146.86 97.1689C147.709 97.1689 148.557 97.1689 149.432 97.1689C149.432 97.2538 149.432 97.3387 149.432 97.4261C148.583 97.4261 147.734 97.4261 146.86 97.4261C146.86 97.7656 146.86 98.1051 146.86 98.4549C146.936 98.4536 147.012 98.4522 147.09 98.4508C147.434 98.4455 147.778 98.4421 148.122 98.4388C148.241 98.4367 148.361 98.4345 148.484 98.4323C148.598 98.4315 148.713 98.4306 148.832 98.4298C148.937 98.4284 149.043 98.4271 149.152 98.4257C149.432 98.4549 149.432 98.4549 149.818 98.7121C149.475 98.8832 149.215 98.8552 148.832 98.8533C148.688 98.8528 148.544 98.8524 148.395 98.852C148.244 98.8509 148.093 98.8498 147.937 98.8487C147.785 98.8482 147.633 98.8476 147.476 98.847C147.099 98.8455 146.722 98.8431 146.345 98.8407C146.345 97.8222 146.345 96.8037 146.345 95.7543Z" fill="#BB2A2D"/>
<path d="M58.1266 95.69C58.2426 95.688 58.3587 95.686 58.4782 95.684C58.9755 95.6869 59.3127 95.6953 59.7456 95.9512C59.9988 96.3945 60.0069 96.8006 59.9993 97.2975C60.0024 97.389 60.0054 97.4805 60.0086 97.5748C60.0073 98.03 59.9607 98.2833 59.6778 98.6438C59.1282 98.9186 58.6605 98.9161 58.0542 98.905C57.9449 98.907 57.8356 98.909 57.7229 98.911C57.2417 98.908 56.9294 98.8938 56.5116 98.6438C56.2529 98.2008 56.251 97.796 56.2619 97.2975C56.2599 97.206 56.2579 97.1145 56.2559 97.0202C56.2589 96.6074 56.3018 96.3115 56.507 95.9512C57.0297 95.6427 57.531 95.6798 58.1266 95.69ZM56.712 96.5259C56.6708 96.8897 56.6708 96.8897 56.6798 97.2975C56.6792 97.4354 56.6785 97.5734 56.6778 97.7155C56.6759 98.0876 56.6759 98.0876 56.9692 98.3263C57.2138 98.366 57.2138 98.366 57.4916 98.3605C57.5941 98.3608 57.6965 98.3611 57.8021 98.3615C57.9091 98.3605 58.0162 98.3595 58.1266 98.3584C58.2337 98.3594 58.3407 98.3604 58.4511 98.3615C58.6048 98.361 58.6048 98.361 58.7615 98.3605C58.8555 98.3602 58.9495 98.3599 59.0464 98.3596C59.3157 98.3462 59.3157 98.3462 59.5412 98.0691C59.5823 97.7053 59.5823 97.7053 59.5733 97.2975C59.574 97.1596 59.5746 97.0217 59.5753 96.8796C59.5772 96.5074 59.5772 96.5074 59.284 96.2687C59.0393 96.229 59.0393 96.229 58.7615 96.2346C58.6591 96.2342 58.5566 96.2339 58.4511 96.2336C58.344 96.2345 58.2369 96.2355 58.1266 96.2366C58.0195 96.2356 57.9124 96.2346 57.8021 96.2336C57.6484 96.2341 57.6484 96.2341 57.4916 96.2346C57.3976 96.2348 57.3036 96.2351 57.2068 96.2354C56.9374 96.2489 56.9374 96.2489 56.712 96.5259Z" fill="#CF272B"/>
<path d="M140.944 95.7543C141.114 95.7543 141.284 95.7543 141.459 95.7543C141.467 95.9199 141.474 96.0855 141.482 96.2562C141.493 96.472 141.504 96.6878 141.515 96.9037C141.52 97.013 141.525 97.1223 141.53 97.235C141.536 97.339 141.541 97.443 141.547 97.5502C141.551 97.6465 141.556 97.7428 141.561 97.842C141.564 98.0723 141.564 98.0723 141.716 98.1977C141.889 98.2088 142.062 98.2115 142.235 98.2103C142.328 98.2099 142.422 98.2096 142.519 98.2093C142.698 98.2075 142.698 98.2075 142.881 98.2057C143.261 98.2031 143.64 98.2004 144.031 98.1977C144.073 97.3914 144.116 96.5851 144.159 95.7543C144.329 95.7543 144.499 95.7543 144.674 95.7543C144.691 96.1483 144.704 96.5416 144.714 96.9358C144.719 97.047 144.725 97.1581 144.73 97.2726C144.741 97.822 144.723 98.1187 144.427 98.5935C143.876 98.9374 143.438 98.931 142.801 98.913C142.637 98.9151 142.637 98.9151 142.47 98.9173C141.676 98.908 141.676 98.908 141.262 98.595C140.991 98.2102 140.928 98.002 140.932 97.5376C140.932 97.434 140.933 97.3304 140.933 97.2237C140.934 97.1154 140.935 97.0072 140.936 96.8956C140.937 96.7864 140.937 96.6771 140.938 96.5646C140.94 96.2945 140.942 96.0244 140.944 95.7543Z" fill="#C2272B"/>
<path d="M135.672 95.7543C135.842 95.7543 136.011 95.7543 136.186 95.7543C136.186 96.1787 136.186 96.6031 136.186 97.0403C137.077 97.0403 137.969 97.0403 138.887 97.0403C138.887 96.6159 138.887 96.1916 138.887 95.7543C139.014 95.7543 139.141 95.7543 139.273 95.7543C139.273 96.7728 139.273 97.7913 139.273 98.8407C139.145 98.8407 139.018 98.8407 138.887 98.8407C138.887 98.4163 138.887 97.9919 138.887 97.5547C137.996 97.5547 137.104 97.5547 136.186 97.5547C136.186 97.9791 136.186 98.4035 136.186 98.8407C136.017 98.8407 135.847 98.8407 135.672 98.8407C135.672 97.8222 135.672 96.8037 135.672 95.7543Z" fill="#C4292C"/>
<path d="M118.825 95.7543C118.953 95.7543 119.08 95.7543 119.211 95.7543C119.219 95.9199 119.227 96.0855 119.235 96.2562C119.246 96.472 119.256 96.6878 119.267 96.9037C119.272 97.013 119.277 97.1223 119.283 97.235C119.288 97.339 119.293 97.443 119.299 97.5502C119.304 97.6465 119.308 97.7428 119.313 97.842C119.316 98.0723 119.316 98.0723 119.468 98.1977C119.639 98.2103 119.811 98.2145 119.983 98.2148C120.086 98.2149 120.19 98.2151 120.296 98.2153C120.459 98.2145 120.459 98.2145 120.626 98.2138C120.734 98.2143 120.843 98.2148 120.955 98.2153C121.059 98.2151 121.162 98.2149 121.269 98.2148C121.412 98.2146 121.412 98.2146 121.558 98.2143C121.787 98.2221 121.787 98.2221 121.912 98.0691C121.932 97.8968 121.944 97.7235 121.952 97.5502C121.958 97.4462 121.963 97.3421 121.969 97.235C121.974 97.1256 121.979 97.0163 121.984 96.9037C121.99 96.7938 121.995 96.684 122.001 96.5709C122.014 96.2987 122.027 96.0265 122.04 95.7543C122.168 95.7543 122.295 95.7543 122.426 95.7543C122.445 96.1722 122.456 96.59 122.466 97.0082C122.472 97.1265 122.477 97.2449 122.483 97.3668C122.498 98.2284 122.498 98.2284 122.179 98.6619C121.627 98.911 121.152 98.9159 120.553 98.905C120.444 98.907 120.335 98.909 120.222 98.911C119.751 98.9081 119.426 98.8876 119.009 98.6619C118.717 98.1275 118.771 97.6056 118.793 97.0082C118.795 96.8878 118.798 96.7675 118.8 96.6435C118.806 96.3469 118.815 96.0507 118.825 95.7543Z" fill="#C42A2E"/>
<path d="M61.5988 95.7543C61.7261 95.7543 61.8534 95.7543 61.9846 95.7543C61.9924 95.9199 62.0002 96.0855 62.0082 96.2562C62.0191 96.472 62.0299 96.6878 62.0409 96.9037C62.0459 97.013 62.051 97.1223 62.0562 97.235C62.0616 97.339 62.067 97.443 62.0725 97.5502C62.0772 97.6465 62.0819 97.7428 62.0868 97.842C62.0898 98.0723 62.0898 98.0723 62.2418 98.1977C62.4129 98.2103 62.5846 98.2145 62.7562 98.2148C62.8596 98.2149 62.9631 98.2151 63.0696 98.2153C63.2328 98.2145 63.2328 98.2145 63.3992 98.2138C63.5079 98.2143 63.6167 98.2148 63.7287 98.2153C63.8322 98.2151 63.9356 98.2149 64.0422 98.2148C64.1854 98.2146 64.1854 98.2146 64.3315 98.2143C64.5602 98.2221 64.5602 98.2221 64.6852 98.0691C64.7052 97.8968 64.7174 97.7235 64.7259 97.5502C64.7312 97.4462 64.7366 97.3421 64.7422 97.235C64.7472 97.1256 64.7523 97.0163 64.7575 96.9037C64.7631 96.7938 64.7686 96.684 64.7743 96.5709C64.788 96.2987 64.801 96.0265 64.8138 95.7543C64.9411 95.7543 65.0684 95.7543 65.1996 95.7543C65.2183 96.1722 65.2297 96.59 65.2398 97.0082C65.2451 97.1265 65.2505 97.2449 65.2561 97.3668C65.2717 98.2301 65.2717 98.2301 64.9479 98.6619C64.418 98.904 63.9753 98.9162 63.3992 98.905C63.2971 98.907 63.195 98.909 63.0897 98.911C62.6123 98.9078 62.2888 98.8622 61.8505 98.6619C61.4588 98.1396 61.5298 97.6416 61.5586 97.0082C61.5615 96.8878 61.5644 96.7675 61.5674 96.6435C61.575 96.3469 61.5855 96.0507 61.5988 95.7543Z" fill="#C52A2E"/>
<path d="M74.2016 95.7543C74.3289 95.7543 74.4562 95.7543 74.5874 95.7543C74.5952 95.9199 74.603 96.0855 74.611 96.2562C74.6218 96.472 74.6327 96.6878 74.6436 96.9037C74.6487 97.013 74.6538 97.1223 74.659 97.235C74.6643 97.339 74.6697 97.443 74.6753 97.5502C74.68 97.6465 74.6847 97.7428 74.6896 97.842C74.6925 98.0723 74.6925 98.0723 74.8446 98.1977C75.0157 98.2103 75.1874 98.2145 75.359 98.2148C75.4624 98.2149 75.5659 98.2151 75.6724 98.2153C75.8355 98.2145 75.8355 98.2145 76.002 98.2138C76.1107 98.2143 76.2195 98.2148 76.3315 98.2153C76.4349 98.2151 76.5384 98.2149 76.645 98.2148C76.7882 98.2146 76.7882 98.2146 76.9343 98.2143C77.163 98.2221 77.163 98.2221 77.288 98.0691C77.308 97.8968 77.3202 97.7235 77.3286 97.5502C77.334 97.4462 77.3394 97.3421 77.345 97.235C77.35 97.1256 77.3551 97.0163 77.3603 96.9037C77.3658 96.7938 77.3714 96.684 77.3771 96.5709C77.3908 96.2987 77.4037 96.0265 77.4166 95.7543C77.5439 95.7543 77.6712 95.7543 77.8023 95.7543C77.8211 96.1722 77.8325 96.59 77.8425 97.0082C77.8479 97.1265 77.8533 97.2449 77.8589 97.3668C77.8745 98.2301 77.8745 98.2301 77.5507 98.6619C77.0208 98.904 76.578 98.9162 76.002 98.905C75.8998 98.907 75.7977 98.909 75.6925 98.911C75.2151 98.9078 74.8916 98.8622 74.4533 98.6619C74.0616 98.1396 74.1326 97.6416 74.1614 97.0082C74.1643 96.8878 74.1672 96.7675 74.1702 96.6435C74.1778 96.3469 74.1883 96.0507 74.2016 95.7543Z" fill="#BE2C2F"/>
<path d="M123.712 95.7543C124.816 95.7543 125.919 95.7543 127.056 95.7543C127.056 95.9241 127.056 96.0938 127.056 96.2687C126.589 96.2687 126.122 96.2687 125.641 96.2687C125.641 97.1175 125.641 97.9662 125.641 98.8407C125.471 98.8407 125.302 98.8407 125.127 98.8407C125.127 97.9919 125.127 97.1432 125.127 96.2687C124.66 96.2687 124.193 96.2687 123.712 96.2687C123.712 96.099 123.712 95.9292 123.712 95.7543Z" fill="#A12C2E"/>
<path d="M83.4607 95.7543C84.5641 95.7543 85.6674 95.7543 86.8043 95.7543C86.8043 95.9241 86.8043 96.0938 86.8043 96.2687C86.3374 96.2687 85.8706 96.2687 85.3897 96.2687C85.3897 97.1175 85.3897 97.9662 85.3897 98.8407C85.2199 98.8407 85.0502 98.8407 84.8753 98.8407C84.8753 97.9919 84.8753 97.1432 84.8753 96.2687C84.4085 96.2687 83.9417 96.2687 83.4607 96.2687C83.4607 96.099 83.4607 95.9292 83.4607 95.7543Z" fill="#A8292D"/>
<path d="M50.7966 95.7543C51.2684 95.7106 51.4995 95.7072 51.8968 95.9794C52.0445 96.1226 52.0445 96.1226 52.1951 96.2687C52.2956 96.3642 52.3961 96.4597 52.4996 96.5581C52.5742 96.6323 52.6488 96.7066 52.7256 96.7831C53.1087 96.6108 53.3738 96.4158 53.674 96.124C54.0173 95.8186 54.105 95.7582 54.5823 95.7061C54.691 95.722 54.7998 95.7379 54.9118 95.7543C54.7845 95.8856 54.7845 95.8856 54.6546 96.0196C54.5681 96.1091 54.5681 96.1091 54.4798 96.2004C54.2688 96.3973 54.2688 96.3973 54.0016 96.5862C53.5448 96.9214 53.2789 97.1324 53.1456 97.6984C53.1149 98.082 53.1013 98.4561 53.1114 98.8407C52.9417 98.8407 52.7719 98.8407 52.597 98.8407C52.597 98.3314 52.597 97.8222 52.597 97.2975C52.4273 97.2126 52.2575 97.1278 52.0826 97.0403C51.8527 96.8505 51.6279 96.6543 51.4075 96.4536C51.2928 96.35 51.178 96.2464 51.0599 96.1396C50.973 96.0549 50.8861 95.9702 50.7966 95.8829C50.7966 95.8405 50.7966 95.798 50.7966 95.7543Z" fill="#BF292C"/>
<path d="M135.993 95.481C136.315 95.4971 136.315 95.4971 136.443 95.6257C136.462 96.0119 136.449 96.3963 136.443 96.7831C137.165 96.7831 137.886 96.7831 138.63 96.7831C138.627 96.5948 138.624 96.4065 138.621 96.2124C138.619 96.0169 138.62 95.8211 138.63 95.6257C138.758 95.4971 138.758 95.4971 139.08 95.481C139.401 95.4971 139.401 95.4971 139.53 95.6257C139.541 95.8547 139.543 96.0841 139.542 96.3134C139.542 96.4523 139.541 96.5911 139.541 96.7341C139.54 96.8803 139.539 97.0264 139.538 97.1769C139.537 97.3236 139.537 97.4702 139.536 97.6213C139.534 97.9849 139.532 98.3485 139.53 98.7121C139.445 98.7545 139.36 98.797 139.273 98.8407C139.273 97.8222 139.273 96.8037 139.273 95.7543C139.145 95.7543 139.018 95.7543 138.887 95.7543C138.887 96.1787 138.887 96.6031 138.887 97.0403C137.996 97.0403 137.104 97.0403 136.186 97.0403C136.186 96.6159 136.186 96.1915 136.186 95.7543C136.016 95.7543 135.847 95.7543 135.672 95.7543C135.672 96.7728 135.672 97.7913 135.672 98.8407C135.842 98.8831 136.011 98.9256 136.186 98.9693C135.974 98.9693 135.762 98.9693 135.543 98.9693C135.539 98.4147 135.537 97.8601 135.535 97.3055C135.534 97.1471 135.533 96.9887 135.532 96.8256C135.531 96.6751 135.531 96.5247 135.531 96.3697C135.53 96.2303 135.529 96.0909 135.529 95.9472C135.548 95.5139 135.56 95.5027 135.993 95.481Z" fill="#290101"/>
<path d="M79.4741 95.7543C79.6439 95.7543 79.8136 95.7543 79.9885 95.7543C79.9885 96.6031 79.9885 97.4518 79.9885 98.3263C80.7524 98.3263 81.5163 98.3263 82.3033 98.3263C82.3033 98.496 82.3033 98.6658 82.3033 98.8407C81.3697 98.8407 80.436 98.8407 79.4741 98.8407C79.4741 97.8222 79.4741 96.8037 79.4741 95.7543Z" fill="#AE2E30"/>
<path d="M101.593 95.7543C102.696 95.7543 103.8 95.7543 104.937 95.7543C104.937 95.9241 104.937 96.0938 104.937 96.2687C104.427 96.2687 103.918 96.2687 103.393 96.2687C103.393 97.1175 103.393 97.9662 103.393 98.8407C103.266 98.8407 103.139 98.8407 103.008 98.8407C103.008 97.9919 103.008 97.1432 103.008 96.2687C102.541 96.2687 102.074 96.2687 101.593 96.2687C101.593 96.099 101.593 95.9292 101.593 95.7543Z" fill="#BE282B"/>
<path d="M115.096 95.7543C115.223 95.7543 115.35 95.7543 115.482 95.7543C115.688 96.0075 115.688 96.0075 115.892 96.333C115.96 96.4404 116.028 96.5479 116.098 96.6585C116.149 96.7421 116.2 96.8256 116.253 96.9117C116.211 96.9966 116.168 97.0815 116.125 97.1689C116.082 97.1689 116.04 97.1689 115.996 97.1689C115.996 97.3387 115.996 97.5084 115.996 97.6833C115.725 97.6868 115.455 97.6893 115.184 97.6913C115.034 97.6928 114.883 97.6943 114.728 97.6959C114.324 97.6833 114.324 97.6833 113.938 97.5547C114.137 97.1319 114.375 96.7513 114.638 96.3652C114.714 96.2504 114.791 96.1357 114.87 96.0175C114.945 95.9307 115.019 95.8438 115.096 95.7543Z" fill="#C1272A"/>
<path d="M96.9634 97.4261C97.0907 97.4261 97.2181 97.4261 97.3492 97.4261C97.3492 97.511 97.3492 97.5959 97.3492 97.6833C97.9433 97.6833 98.5375 97.6833 99.1496 97.6833C99.1496 97.5984 99.1496 97.5135 99.1496 97.4261C99.7508 97.5807 99.9808 97.8815 100.318 98.3705C100.436 98.5835 100.436 98.5835 100.436 98.8407C100.13 98.8005 100.13 98.8005 99.7926 98.7121C99.7077 98.5848 99.6228 98.4575 99.5354 98.3263C99.1364 98.2425 98.7285 98.2667 98.3217 98.27C98.2096 98.2675 98.0975 98.2649 97.9819 98.2622C97.6758 98.2625 97.3928 98.2687 97.092 98.3263C96.86 98.575 96.86 98.575 96.7062 98.8407C96.3606 98.8728 96.3606 98.8728 96.0632 98.8407C96.2035 98.6039 96.3459 98.3684 96.4892 98.1334C96.5683 98.0021 96.6474 97.8708 96.7288 97.7355C96.8062 97.6334 96.8837 97.5313 96.9634 97.4261Z" fill="#B02225"/>
<path d="M67.3857 96.2687C68.2769 96.2687 69.1681 96.2687 70.0863 96.2687C70.0863 96.5658 70.0863 96.8628 70.0863 97.1689C69.1951 97.1689 68.3039 97.1689 67.3857 97.1689C67.3857 96.8718 67.3857 96.5748 67.3857 96.2687Z" fill="#0F0000"/>
<path d="M67 96.0115C67.1273 96.0115 67.2546 96.0115 67.3858 96.0115C67.3858 96.3935 67.3858 96.7754 67.3858 97.1689C68.3619 97.1689 69.3379 97.1689 70.3436 97.1689C70.3436 97.4235 70.3436 97.6782 70.3436 97.9405C70.3011 97.8556 70.2587 97.7707 70.215 97.6833C69.2389 97.6833 68.2628 97.6833 67.2572 97.6833C67.2572 97.9804 67.2572 98.2774 67.2572 98.5835C67.1723 98.5835 67.0874 98.5835 67 98.5835C67 97.7347 67 96.886 67 96.0115Z" fill="#CC2226"/>
<path d="M58.1587 95.7222C58.2791 95.7245 58.3994 95.7268 58.5234 95.7292C58.8199 95.7353 59.1162 95.7437 59.4126 95.7543C59.4126 95.7968 59.4126 95.8392 59.4126 95.8829C58.6487 95.9254 57.8848 95.9678 57.0978 96.0115C57.7768 96.054 58.4558 96.0964 59.1554 96.1401C59.1554 96.1826 59.1554 96.225 59.1554 96.2687C58.9209 96.2804 58.9209 96.2804 58.6817 96.2923C58.4779 96.3032 58.2741 96.3141 58.0703 96.325C57.9671 96.33 57.8639 96.3351 57.7576 96.3403C57.2582 96.3209 57.2582 96.3209 56.8406 96.5259C56.8279 96.7829 56.8239 97.0403 56.8245 97.2975C56.8242 97.4381 56.8238 97.5787 56.8235 97.7235C56.8013 98.0586 56.8013 98.0586 56.9692 98.1977C57.3368 98.2282 57.702 98.252 58.0703 98.27C58.174 98.2756 58.2777 98.2811 58.3845 98.2869C58.6414 98.3005 58.8984 98.3135 59.1554 98.3263C59.1554 98.3687 59.1554 98.4112 59.1554 98.4549C58.0732 98.5186 58.0732 98.5186 56.9692 98.5835C57.7331 98.6259 58.4969 98.6684 59.284 98.7121C59.284 98.7545 59.284 98.797 59.284 98.8407C58.8875 98.8557 58.4911 98.8648 58.0944 98.8728C57.9261 98.8793 57.9261 98.8793 57.7543 98.8859C56.9387 98.8984 56.9387 98.8984 56.509 98.6458C56.2546 98.2012 56.2511 97.7958 56.2619 97.2975C56.2599 97.206 56.2579 97.1145 56.2559 97.0202C56.2589 96.608 56.3029 96.3103 56.505 95.9492C57.0367 95.6404 57.5566 95.7002 58.1587 95.7222Z" fill="#BD2B2E"/>
<path d="M146.474 96.0115C146.601 96.0752 146.601 96.0752 146.731 96.1401C146.774 96.4372 146.816 96.7342 146.86 97.0403C147.709 97.0827 148.557 97.1252 149.432 97.1689C149.432 97.2538 149.432 97.3387 149.432 97.4261C148.583 97.4261 147.734 97.4261 146.86 97.4261C146.86 97.7656 146.86 98.1051 146.86 98.4549C146.936 98.4535 147.012 98.4522 147.09 98.4508C147.434 98.4455 147.778 98.4421 148.122 98.4388C148.241 98.4367 148.361 98.4345 148.484 98.4323C148.599 98.4315 148.713 98.4306 148.832 98.4298C148.937 98.4284 149.043 98.4271 149.152 98.4257C149.432 98.4549 149.432 98.4549 149.818 98.7121C148.714 98.7121 147.611 98.7121 146.474 98.7121C146.474 97.8209 146.474 96.9297 146.474 96.0115Z" fill="#CF2629"/>
<path d="M144.489 95.473C144.802 95.4971 144.802 95.4971 144.931 95.6257C144.944 95.8141 144.948 96.003 144.948 96.1918C144.948 96.3063 144.948 96.4208 144.949 96.5387C144.948 96.6591 144.948 96.7796 144.947 96.9037C144.948 97.0836 144.948 97.0836 144.949 97.2671C144.948 97.3817 144.948 97.4964 144.948 97.6145C144.948 97.7201 144.948 97.8256 144.948 97.9344C144.931 98.1977 144.931 98.1977 144.802 98.4549C144.717 98.4549 144.633 98.4549 144.545 98.4549C144.588 97.5637 144.63 96.6725 144.674 95.7543C144.504 95.7543 144.334 95.7543 144.159 95.7543C144.16 95.8643 144.16 95.8643 144.161 95.9766C144.164 96.307 144.166 96.6375 144.167 96.968C144.168 97.0834 144.17 97.1989 144.171 97.3178C144.171 97.4826 144.171 97.4826 144.172 97.6506C144.173 97.8032 144.173 97.8032 144.174 97.9588C144.159 98.1977 144.159 98.1977 144.031 98.3263C143.858 98.3374 143.685 98.3401 143.512 98.3388C143.408 98.3384 143.304 98.338 143.197 98.3376C143.087 98.3365 142.978 98.3354 142.865 98.3343C142.756 98.3337 142.646 98.3332 142.533 98.3326C142.26 98.331 141.988 98.3287 141.716 98.3263C141.674 98.2414 141.631 98.1565 141.587 98.0691C142.351 98.0691 143.115 98.0691 143.902 98.0691C143.892 97.3189 143.892 97.3189 143.879 96.5687C143.878 96.4753 143.878 96.382 143.877 96.2858C143.876 96.1902 143.874 96.0945 143.873 95.996C143.923 95.5827 144.093 95.502 144.489 95.473Z" fill="#220000"/>
<path d="M146.86 96.2687C147.751 96.2687 148.642 96.2687 149.56 96.2687C149.56 96.4809 149.56 96.6931 149.56 96.9117C149.432 97.0403 149.432 97.0403 149.181 97.0549C149.074 97.0542 148.967 97.0536 148.857 97.0529C148.741 97.0524 148.625 97.052 148.506 97.0516C148.385 97.0505 148.263 97.0494 148.138 97.0483C148.016 97.0478 147.894 97.0472 147.768 97.0466C147.465 97.0451 147.163 97.0429 146.86 97.0403C146.86 96.7857 146.86 96.531 146.86 96.2687Z" fill="#180000"/>
<path d="M146.86 97.5547C147.709 97.5547 148.557 97.5547 149.432 97.5547C149.474 97.7669 149.517 97.9791 149.56 98.1977C149.432 98.3263 149.432 98.3263 149.181 98.3409C149.074 98.3402 148.967 98.3395 148.857 98.3389C148.741 98.3384 148.625 98.338 148.506 98.3376C148.385 98.3365 148.263 98.3354 148.138 98.3343C148.016 98.3338 147.894 98.3332 147.768 98.3326C147.465 98.3311 147.163 98.3289 146.86 98.3263C146.86 98.0717 146.86 97.817 146.86 97.5547Z" fill="#170000"/>
<path d="M144.159 95.7543C144.329 95.7543 144.499 95.7543 144.674 95.7543C144.689 96.1508 144.698 96.5472 144.706 96.9439C144.712 97.1122 144.712 97.1122 144.719 97.2839C144.732 98.1226 144.732 98.1226 144.414 98.5333C144.33 98.5923 144.246 98.6513 144.159 98.7121C144.074 98.6697 143.989 98.6272 143.902 98.5835C143.532 98.5536 143.164 98.5295 142.793 98.5112C142.69 98.5056 142.587 98.5 142.48 98.4943C142.226 98.4807 141.971 98.4677 141.716 98.4549C141.716 98.4125 141.716 98.37 141.716 98.3263C142.48 98.2839 143.244 98.2414 144.031 98.1977C144.073 97.3914 144.115 96.5851 144.159 95.7543Z" fill="#B62A2D"/>
<path d="M74.2016 95.7543C74.3289 95.7543 74.4563 95.7543 74.5874 95.7543C74.5952 95.9169 74.603 96.0796 74.611 96.2471C74.6219 96.4606 74.6328 96.6741 74.6437 96.8876C74.6487 96.9948 74.6538 97.1019 74.659 97.2124C74.6644 97.3156 74.6698 97.4187 74.6753 97.5251C74.6801 97.62 74.6848 97.715 74.6896 97.8128C74.7094 98.0958 74.7094 98.0958 74.8446 98.4549C75.5661 98.4549 76.2875 98.4549 77.0308 98.4549C77.0308 98.5398 77.0308 98.6246 77.0308 98.7121C76.6316 98.7233 76.2325 98.7302 75.8332 98.7362C75.7199 98.7394 75.6066 98.7427 75.4899 98.746C75.3264 98.7479 75.3264 98.7479 75.1596 98.7498C75.0593 98.7518 74.9589 98.7538 74.8555 98.7559C74.5874 98.7121 74.5874 98.7121 74.3611 98.5544C74.1549 98.2594 74.1571 98.0838 74.164 97.726C74.1652 97.6112 74.1664 97.4964 74.1677 97.3781C74.171 97.2587 74.1742 97.1393 74.1775 97.0162C74.1793 96.8953 74.181 96.7743 74.1828 96.6497C74.1873 96.3512 74.1937 96.0528 74.2016 95.7543Z" fill="#CD292C"/>
<path d="M70.4721 96.0115C70.557 96.0115 70.6419 96.0115 70.7293 96.0115C70.8901 96.3331 70.8618 96.5263 70.8423 96.8846C70.8361 97.0056 70.8299 97.1266 70.8235 97.2513C70.8163 97.3779 70.8091 97.5046 70.8016 97.6351C70.7949 97.7627 70.7882 97.8904 70.7813 98.0219C70.7646 98.3377 70.7472 98.6535 70.7293 98.9693C70.4747 98.9693 70.2201 98.9693 69.9577 98.9693C69.8291 98.7121 69.8291 98.7121 69.8291 97.9405C69.0652 97.9405 68.3014 97.9405 67.5143 97.9405C67.5143 98.1951 67.5143 98.4497 67.5143 98.7121C67.4719 98.7121 67.4295 98.7121 67.3857 98.7121C67.3857 98.3726 67.3857 98.0331 67.3857 97.6833C67.8117 97.6796 68.2377 97.6773 68.6637 97.6753C68.8461 97.6736 68.8461 97.6736 69.0322 97.672C69.2056 97.6714 69.2056 97.6714 69.3825 97.6707C69.4896 97.6701 69.5967 97.6694 69.707 97.6687C69.9577 97.6833 69.9577 97.6833 70.0863 97.8119C70.1045 98.1553 70.0918 98.4966 70.0863 98.8407C70.2561 98.8407 70.4258 98.8407 70.6007 98.8407C70.5914 98.7442 70.5821 98.6477 70.5726 98.5483C70.4956 97.6996 70.4551 96.8635 70.4721 96.0115Z" fill="#260101"/>
<path d="M160.877 70.8061C161.472 70.8766 162.067 70.9475 162.662 71.0188C162.864 71.043 163.067 71.0671 163.269 71.0911C163.56 71.1255 163.851 71.1605 164.142 71.1955C164.233 71.206 164.323 71.2166 164.416 71.2275C164.83 71.2778 165.234 71.3333 165.635 71.4491C165.635 71.534 165.635 71.6189 165.635 71.7063C163.811 71.7063 161.986 71.7063 160.106 71.7063C160.063 71.579 160.021 71.4517 159.977 71.3205C160.062 71.3205 160.147 71.3205 160.234 71.3205C160.234 71.4054 160.234 71.4903 160.234 71.5777C162.144 71.5141 162.144 71.5141 164.092 71.4491C163.583 71.4292 163.583 71.4292 163.063 71.4089C162.266 71.3699 161.604 71.2903 160.877 70.9347C160.877 70.8923 160.877 70.8499 160.877 70.8061Z" fill="#C3292D"/>
<path d="M32.1496 68.4914C32.192 68.6611 32.2345 68.8309 32.2782 69.0058C32.4055 69.0058 32.5328 69.0058 32.664 69.0058C32.4592 69.6052 32.1344 70.0869 31.7799 70.6052C31.724 70.6878 31.6682 70.7705 31.6106 70.8556C31.5005 71.0184 31.3902 71.1811 31.2797 71.3436C31.0532 71.6774 30.8297 72.0133 30.6064 72.3493C30.4778 71.9635 30.4778 71.9635 30.6028 71.6425C30.6673 71.5177 30.7319 71.3929 30.7983 71.2643C30.8678 71.128 30.9372 70.9917 31.0088 70.8514C31.0829 70.7091 31.157 70.5669 31.2333 70.4203C31.3779 70.1391 31.5222 69.8578 31.6664 69.5764C31.7312 69.4516 31.796 69.3268 31.8627 69.1982C32.0321 68.873 32.0321 68.873 32.1496 68.4914Z" fill="#C7272A"/>
<path d="M88.0903 95.7543C88.2601 95.7543 88.4298 95.7543 88.6047 95.7543C88.6047 96.7728 88.6047 97.7913 88.6047 98.8407C88.435 98.8407 88.2652 98.8407 88.0903 98.8407C88.0903 97.8222 88.0903 96.8037 88.0903 95.7543Z" fill="#B3292B"/>
<path d="M88.4118 95.481C88.7333 95.4971 88.7333 95.4971 88.8619 95.6257C88.8731 95.8735 88.8756 96.1217 88.8744 96.3697C88.874 96.5201 88.8736 96.6706 88.8732 96.8256C88.8721 96.9839 88.871 97.1423 88.8699 97.3055C88.8693 97.4644 88.8687 97.6233 88.8681 97.787C88.8666 98.1811 88.8645 98.5752 88.8619 98.9693C88.5564 99.0497 88.5564 99.0497 88.2189 99.0979C87.9617 98.8407 87.9617 98.8407 87.9304 98.5184C87.9309 98.3859 87.9315 98.2534 87.932 98.1168C87.9323 97.9732 87.9325 97.8295 87.9328 97.6815C87.9343 97.5309 87.9359 97.3803 87.9375 97.2252C87.9376 97.0741 87.9377 96.923 87.9378 96.7673C87.9444 95.5044 87.9444 95.5044 88.4118 95.481ZM88.0903 95.7543C88.0903 96.7728 88.0903 97.7913 88.0903 98.8407C88.26 98.8407 88.4298 98.8407 88.6047 98.8407C88.6047 97.8222 88.6047 96.8037 88.6047 95.7543C88.4349 95.7543 88.2652 95.7543 88.0903 95.7543Z" fill="#280000"/>
<path d="M130.174 95.7141C130.295 95.717 130.415 95.7199 130.539 95.7229C130.835 95.7305 131.132 95.741 131.428 95.7543C131.428 95.7968 131.428 95.8392 131.428 95.8829C130.707 95.8829 129.985 95.8829 129.242 95.8829C129.242 95.9678 129.242 96.0527 129.242 96.1401C129.878 96.1401 130.515 96.1401 131.171 96.1401C131.171 96.1825 131.171 96.225 131.171 96.2687C130.089 96.3324 130.089 96.3324 128.985 96.3973C128.985 96.9914 128.985 97.5856 128.985 98.1977C128.9 98.1977 128.815 98.1977 128.727 98.1977C128.685 97.6884 128.643 97.1792 128.599 96.6545C128.515 97.7574 128.515 97.7574 128.985 98.7121C128.486 98.487 128.486 98.487 128.342 98.1977C128.319 97.9062 128.307 97.6139 128.301 97.3216C128.297 97.1643 128.292 97.007 128.287 96.8449C128.434 95.6444 129.155 95.6677 130.174 95.7141Z" fill="#BA282B"/>
<path d="M80.6316 73.2495C82.6135 73.3256 84.5771 73.5401 86.5471 73.7639C86.5047 73.8912 86.4623 74.0185 86.4185 74.1497C85.0664 74.0156 83.7161 73.8675 82.3677 73.6996C82.2395 73.6844 82.1114 73.6692 81.9793 73.6535C81.8595 73.6382 81.7397 73.6229 81.6162 73.6072C81.5098 73.594 81.4035 73.5808 81.2939 73.5673C81.0174 73.5067 81.0174 73.5067 80.6316 73.2495Z" fill="#B4B4B4"/>
<path d="M123.841 95.8829C124.859 95.8829 125.878 95.8829 126.927 95.8829C126.927 95.9678 126.927 96.0527 126.927 96.1401C126.46 96.1401 125.993 96.1401 125.512 96.1401C125.512 96.9889 125.512 97.8376 125.512 98.7121C125.427 98.7121 125.343 98.7121 125.255 98.7121C125.213 97.9058 125.17 97.0995 125.127 96.2687C124.702 96.2263 124.278 96.1838 123.841 96.1401C123.841 96.0552 123.841 95.9704 123.841 95.8829Z" fill="#D2272A"/>
<path d="M83.7178 95.8829C84.6514 95.8829 85.585 95.8829 86.5469 95.8829C86.5469 95.9678 86.5469 96.0527 86.5469 96.1401C85.974 96.2038 85.974 96.2038 85.3896 96.2687C85.3471 97.0326 85.3047 97.7965 85.261 98.5835C85.1761 98.5835 85.0912 98.5835 85.0038 98.5835C85.0038 97.7772 85.0038 96.9709 85.0038 96.1401C84.5794 96.1401 84.155 96.1401 83.7178 96.1401C83.7178 96.0552 83.7178 95.9704 83.7178 95.8829Z" fill="#D82428"/>
<path d="M106.737 97.0403C107.628 97.0403 108.519 97.0403 109.438 97.0403C109.438 97.2101 109.438 97.3798 109.438 97.5547C108.546 97.5547 107.655 97.5547 106.737 97.5547C106.737 97.385 106.737 97.2152 106.737 97.0403Z" fill="#B62B2E"/>
<path d="M79.6028 95.8829C79.6877 95.8829 79.7725 95.8829 79.86 95.8829C79.9024 96.7317 79.9449 97.5804 79.9886 98.4549C80.71 98.4549 81.4315 98.4549 82.1748 98.4549C82.1748 98.5398 82.1748 98.6246 82.1748 98.7121C81.326 98.7121 80.4773 98.7121 79.6028 98.7121C79.6028 97.7785 79.6028 96.8448 79.6028 95.8829Z" fill="#D82428"/>
<path d="M115.868 96.9117C116.299 97.3001 116.411 97.4973 116.639 98.0691C115.706 98.0691 114.772 98.0691 113.81 98.0691C113.852 97.8994 113.895 97.7296 113.939 97.5547C114.066 97.5123 114.193 97.4698 114.324 97.4261C114.324 97.511 114.324 97.5959 114.324 97.6833C114.876 97.6833 115.428 97.6833 115.996 97.6833C115.954 97.4287 115.911 97.1741 115.868 96.9117Z" fill="#D42529"/>
<path d="M160.363 70.2917C160.702 70.3766 161.042 70.4615 161.392 70.5489C161.392 70.6338 161.392 70.7187 161.392 70.8061C161.52 70.8047 161.649 70.8032 161.781 70.8016C161.947 70.8005 162.113 70.7993 162.284 70.7981C162.449 70.7966 162.615 70.7951 162.786 70.7936C163.192 70.8061 163.192 70.8061 163.321 70.9347C163.722 70.9653 164.123 70.9856 164.525 71.0013C164.996 71.0257 165.361 71.0647 165.764 71.3205C165.722 71.4479 165.679 71.5752 165.635 71.7063C165.635 71.6215 165.635 71.5366 165.635 71.4491C165.52 71.4395 165.52 71.4395 165.402 71.4296C161.09 71.0644 161.09 71.0644 160.363 70.4203C160.363 70.3779 160.363 70.3355 160.363 70.2917Z" fill="#370404"/>
<path d="M97.0922 97.4261C97.177 97.4261 97.2619 97.4261 97.3494 97.4261C97.3494 97.511 97.3494 97.5959 97.3494 97.6833C97.9435 97.6833 98.5376 97.6833 99.1497 97.6833C99.1497 97.5984 99.1497 97.5135 99.1497 97.4261C99.3195 97.511 99.4892 97.5959 99.6641 97.6833C99.6641 97.8106 99.6641 97.9379 99.6641 98.0691C98.7305 98.0691 97.7969 98.0691 96.835 98.0691C96.9198 97.8569 97.0047 97.6447 97.0922 97.4261Z" fill="#D52529"/>
<path d="M138.887 95.7543C139.014 95.7543 139.141 95.7543 139.273 95.7543C139.273 96.7728 139.273 97.7913 139.273 98.8407C139.145 98.8407 139.018 98.8407 138.887 98.8407C138.887 97.8222 138.887 96.8037 138.887 95.7543Z" fill="#CC2A2E"/>
<path d="M135.672 95.7543C135.842 95.7543 136.011 95.7543 136.186 95.7543C136.186 96.1363 136.186 96.5182 136.186 96.9117C136.144 96.9117 136.101 96.9117 136.058 96.9117C136.058 97.1239 136.058 97.3361 136.058 97.5547C136.1 97.5547 136.143 97.5547 136.186 97.5547C136.186 97.9791 136.186 98.4035 136.186 98.8407C136.017 98.8407 135.847 98.8407 135.672 98.8407C135.672 97.8222 135.672 96.8037 135.672 95.7543Z" fill="#A9292B"/>
<path d="M90.405 95.4971C90.7425 95.5453 90.7425 95.5453 91.048 95.6257C91.0055 95.753 90.9631 95.8803 90.9194 96.0115C90.7496 95.9266 90.5799 95.8418 90.405 95.7543C90.405 96.7728 90.405 97.7913 90.405 98.8407C90.5747 98.8407 90.7445 98.8407 90.9194 98.8407C90.9194 98.1617 90.9194 97.4827 90.9194 96.7831C91.4338 97.2975 91.4338 97.2975 91.4338 97.5547C91.3064 97.5547 91.1791 97.5547 91.048 97.5547C91.048 98.0215 91.048 98.4883 91.048 98.9693C90.7933 98.9693 90.5387 98.9693 90.2764 98.9693C90.2474 98.4389 90.2214 97.9084 90.196 97.3779C90.1877 97.2267 90.1794 97.0755 90.1709 96.9197C90.1642 96.7755 90.1576 96.6313 90.1508 96.4827C90.144 96.3494 90.1373 96.216 90.1304 96.0786C90.1478 95.7543 90.1478 95.7543 90.405 95.4971Z" fill="#280000"/>
<path d="M98.2496 96.3973C98.5965 96.8159 98.8671 97.2121 99.1498 97.6833C98.5981 97.6833 98.0464 97.6833 97.478 97.6833C98.1049 96.542 98.1049 96.542 98.2496 96.3973Z" fill="#350001"/>
<path d="M115.096 96.5259C115.614 96.6985 115.724 96.9661 115.996 97.4261C115.996 97.511 115.996 97.5959 115.996 97.6833C115.487 97.6833 114.978 97.6833 114.453 97.6833C114.649 97.1928 114.778 96.9161 115.096 96.5259Z" fill="#120000"/>
<path d="M157.148 67.0768C157.682 67.2818 158.013 67.6738 158.385 68.0895C158.48 68.1917 158.48 68.1917 158.576 68.296C158.889 68.6402 159.156 68.9591 159.334 69.3916C159.27 69.3359 159.207 69.2802 159.141 69.2228C159.059 69.1512 158.977 69.0795 158.892 69.0058C158.81 68.9341 158.728 68.8625 158.643 68.7887C158.462 68.6065 158.462 68.6065 158.305 68.62C158.39 68.8321 158.475 69.0443 158.562 69.263C157.987 68.7388 157.521 68.1477 157.148 67.4626C157.148 67.3353 157.148 67.2079 157.148 67.0768Z" fill="#BB282B"/>
<path d="M122.04 95.7543C122.168 95.7543 122.295 95.7543 122.426 95.7543C122.426 96.6031 122.426 97.4518 122.426 98.3263C122.299 98.3263 122.171 98.3263 122.04 98.3263C122.04 97.4775 122.04 96.6288 122.04 95.7543Z" fill="#CC292C"/>
<path d="M139.015 95.4971C139.27 95.5608 139.27 95.5608 139.53 95.6257C139.53 96.6442 139.53 97.6627 139.53 98.7121C139.445 98.7545 139.36 98.797 139.273 98.8407C139.273 97.8222 139.273 96.8037 139.273 95.7543C139.145 95.7119 139.018 95.6694 138.887 95.6257C138.929 95.5833 138.972 95.5408 139.015 95.4971Z" fill="#400405"/>
<path d="M57.4284 95.7418C57.5436 95.7422 57.6588 95.7426 57.7775 95.743C57.9583 95.7446 57.9583 95.7446 58.1427 95.7463C58.2642 95.7469 58.3857 95.7474 58.5109 95.748C58.8115 95.7496 59.112 95.7517 59.4126 95.7543C59.4126 95.7968 59.4126 95.8392 59.4126 95.8829C58.6487 95.9254 57.8849 95.9678 57.0978 96.0115C57.7768 96.054 58.4558 96.0964 59.1554 96.1401C59.1554 96.1826 59.1554 96.225 59.1554 96.2687C58.9232 96.2804 58.9232 96.2804 58.6862 96.2923C58.4836 96.3032 58.281 96.3141 58.0784 96.325C57.9763 96.33 57.8742 96.3351 57.769 96.3403C57.2231 96.3573 57.2231 96.3573 56.712 96.5259C56.712 96.441 56.712 96.3562 56.712 96.2687C56.6272 96.2687 56.5423 96.2687 56.4548 96.2687C56.4973 96.1414 56.5397 96.0141 56.5834 95.8829C56.8921 95.7286 57.0841 95.7396 57.4284 95.7418Z" fill="#A6282A"/>
<path d="M131.557 96.3973C131.599 96.3973 131.642 96.3973 131.685 96.3973C131.749 97.4795 131.749 97.4795 131.814 98.5835C131.729 98.6259 131.644 98.6684 131.557 98.7121C131.429 98.6697 131.302 98.6272 131.171 98.5835C130.819 98.5542 130.47 98.5299 130.118 98.5112C130.022 98.5056 129.925 98.5001 129.826 98.4943C129.588 98.4807 129.351 98.4677 129.113 98.4549C129.113 98.4125 129.113 98.37 129.113 98.3263C129.348 98.3146 129.348 98.3146 129.587 98.3027C129.791 98.2918 129.995 98.281 130.198 98.27C130.302 98.265 130.405 98.2599 130.511 98.2547C131.01 98.2742 131.01 98.2742 131.428 98.0691C131.458 97.7884 131.481 97.5069 131.5 97.2252C131.511 97.0712 131.522 96.9172 131.533 96.7585C131.545 96.5797 131.545 96.5797 131.557 96.3973Z" fill="#B42A2E"/>
<path d="M86.2898 73.8925C87.1385 73.935 87.9873 73.9774 88.8618 74.0211C88.476 74.4069 88.476 74.4069 88.1233 74.4255C87.9904 74.4114 87.8574 74.3973 87.7205 74.3828C87.522 74.3642 87.522 74.3642 87.3196 74.3451C86.9449 74.2804 86.6358 74.1762 86.2898 74.0211C86.2898 73.9787 86.2898 73.9362 86.2898 73.8925Z" fill="#D5D5D5"/>
<path d="M129.107 95.7397C129.214 95.7404 129.321 95.7411 129.431 95.7418C129.547 95.7422 129.663 95.7426 129.782 95.743C129.964 95.7446 129.964 95.7446 130.15 95.7463C130.272 95.7469 130.394 95.7474 130.52 95.748C130.823 95.7496 131.125 95.7517 131.428 95.7543C131.428 95.7968 131.428 95.8392 131.428 95.8829C130.707 95.8829 129.985 95.8829 129.242 95.8829C129.242 95.9678 129.242 96.0527 129.242 96.1401C129.878 96.1401 130.515 96.1401 131.171 96.1401C131.171 96.1826 131.171 96.225 131.171 96.2687C130.449 96.2687 129.728 96.2687 128.985 96.2687C128.985 96.1838 128.985 96.099 128.985 96.0115C128.9 95.9691 128.815 95.9266 128.728 95.8829C128.856 95.7543 128.856 95.7543 129.107 95.7397Z" fill="#A4282B"/>
<path d="M129.242 95.8829C130.048 95.8829 130.855 95.8829 131.685 95.8829C131.728 95.9678 131.77 96.0527 131.814 96.1401C131.255 96.2866 130.735 96.2598 130.166 96.2124C130.033 96.2024 130.033 96.2024 129.896 96.1921C129.678 96.1756 129.46 96.1579 129.242 96.1401C129.242 96.0552 129.242 95.9704 129.242 95.8829Z" fill="#CD282B"/>
<path d="M116.253 97.1689C116.798 97.6328 117.085 98.2165 117.411 98.8407C117.104 98.797 117.104 98.797 116.768 98.7121C116.535 98.3826 116.535 98.3826 116.382 98.0691C116.467 98.0691 116.552 98.0691 116.639 98.0691C116.576 97.9683 116.512 97.8675 116.446 97.7637C116.253 97.4261 116.253 97.4261 116.253 97.1689Z" fill="#BF2B2E"/>
<path d="M94.3916 95.8829C94.434 95.8829 94.4765 95.8829 94.5202 95.8829C94.5202 96.7741 94.5202 97.6653 94.5202 98.5835C94.4778 98.5835 94.4353 98.5835 94.3916 98.5835C94.3492 98.0318 94.3067 97.4801 94.263 96.9117C94.1357 96.8693 94.0084 96.8268 93.8772 96.7831C94.0469 96.486 94.2167 96.189 94.3916 95.8829Z" fill="#DD2226"/>
<path d="M31.2494 70.4203C31.2919 70.5052 31.3343 70.5901 31.378 70.6775C31.4629 70.72 31.5478 70.7624 31.6352 70.8061C31.126 71.57 31.126 71.57 30.6064 72.3493C30.4778 71.9635 30.4778 71.9635 30.6341 71.5883C30.7072 71.4495 30.7803 71.3108 30.8556 71.1678C30.9284 71.0281 31.0011 70.8883 31.0761 70.7444C31.1333 70.6374 31.1905 70.5305 31.2494 70.4203Z" fill="#A52B2E"/>
<path d="M160.363 70.2917C160.702 70.3766 161.042 70.4615 161.392 70.5489C161.392 70.6338 161.392 70.7187 161.392 70.8061C161.986 70.8061 162.58 70.8061 163.192 70.8061C163.234 70.891 163.277 70.9759 163.321 71.0633C162.972 71.0556 162.624 71.0444 162.276 71.0312C162.178 71.0294 162.08 71.0275 161.979 71.0257C161.287 70.9958 160.9 70.8633 160.363 70.4203C160.363 70.3779 160.363 70.3355 160.363 70.2917Z" fill="#250202"/>
<path d="M99.664 97.6833C100.06 98.0399 100.267 98.3344 100.436 98.8407C100.13 98.8166 100.13 98.8166 99.7926 98.7121C99.6158 98.4067 99.6158 98.4067 99.5354 98.0691C99.5778 97.9418 99.6203 97.8145 99.664 97.6833Z" fill="#BB2A2D"/>
<path d="M140.816 95.6257C141.028 95.6257 141.24 95.6257 141.459 95.6257C141.289 95.6682 141.119 95.7106 140.944 95.7543C140.962 96.1294 140.981 96.5045 141.001 96.8796C141.006 96.9857 141.011 97.0917 141.016 97.2011C141.021 97.3038 141.027 97.4066 141.032 97.5125C141.037 97.6068 141.042 97.7011 141.046 97.7982C141.073 98.0706 141.128 98.3201 141.201 98.5835C141.074 98.5411 140.947 98.4986 140.816 98.4549C140.816 97.5213 140.816 96.5876 140.816 95.6257Z" fill="#240000"/>
<path d="M114.196 97.4261C114.281 97.511 114.366 97.5959 114.453 97.6833C114.825 97.743 114.825 97.743 115.241 97.7637C115.452 97.7781 115.452 97.7781 115.668 97.7928C115.776 97.7991 115.885 97.8054 115.996 97.8119C115.996 97.8543 115.996 97.8968 115.996 97.9405C114.914 98.0042 114.914 98.0042 113.81 98.0691C113.852 97.8993 113.895 97.7296 113.939 97.5547C114.024 97.5123 114.108 97.4698 114.196 97.4261Z" fill="#DE2126"/>
<path d="M84.6182 73.7639C85.2547 73.7639 85.8913 73.7639 86.5471 73.7639C86.5047 73.8912 86.4623 74.0185 86.4185 74.1497C86.1425 74.1351 85.8666 74.1187 85.5907 74.1015C85.437 74.0925 85.2834 74.0836 85.125 74.0744C85.0002 74.0568 84.8754 74.0392 84.7468 74.0211C84.7043 73.9362 84.6619 73.8514 84.6182 73.7639Z" fill="#C2C2C2"/>
<path d="M146.474 96.0115C146.601 96.0752 146.601 96.0752 146.731 96.1401C146.785 96.4621 146.785 96.4621 146.812 96.8554C146.821 96.9856 146.831 97.1157 146.841 97.2498C146.85 97.4007 146.85 97.4007 146.86 97.5547C146.775 97.5547 146.69 97.5547 146.603 97.5547C146.603 97.8518 146.603 98.1488 146.603 98.4549C146.56 98.4549 146.518 98.4549 146.474 98.4549C146.474 97.6486 146.474 96.8423 146.474 96.0115Z" fill="#DF2126"/>
<path d="M114.967 96.7831C115.01 96.9104 115.052 97.0377 115.096 97.1689C115.011 97.2538 114.926 97.3387 114.839 97.4261C115.136 97.4685 115.433 97.511 115.739 97.5547C115.781 97.4698 115.824 97.385 115.867 97.2975C115.91 97.4248 115.952 97.5521 115.996 97.6833C115.487 97.6833 114.978 97.6833 114.453 97.6833C114.71 97.0403 114.71 97.0403 114.967 96.7831Z" fill="#340101"/>
<path d="M97.0922 97.4261C97.177 97.4261 97.2619 97.4261 97.3494 97.4261C97.3918 97.511 97.4342 97.5959 97.478 97.6833C97.8401 97.7436 97.8401 97.7436 98.2576 97.7637C98.4707 97.7781 98.4707 97.7781 98.6881 97.7928C98.798 97.7991 98.9079 97.8054 99.0211 97.8119C99.0211 97.8543 99.0211 97.8968 99.0211 97.9405C97.939 98.0042 97.939 98.0042 96.835 98.0691C96.9198 97.8569 97.0047 97.6447 97.0922 97.4261Z" fill="#DF2126"/>
<path d="M90.6621 96.0115C90.8319 96.054 91.0016 96.0964 91.1765 96.1401C91.2189 96.3523 91.2614 96.5645 91.3051 96.7831C91.0929 96.8255 90.8807 96.868 90.6621 96.9117C90.6621 96.6146 90.6621 96.3176 90.6621 96.0115Z" fill="#D72327"/>
<path d="M90.9194 96.7831C91.4338 97.2975 91.4338 97.2975 91.4338 97.5547C91.3065 97.5547 91.1792 97.5547 91.048 97.5547C91.048 97.9366 91.048 98.3186 91.048 98.7121C91.0056 98.7121 90.9632 98.7121 90.9194 98.7121C90.9194 98.0755 90.9194 97.439 90.9194 96.7831Z" fill="#390001"/>
<path d="M98.2496 96.9117C98.3769 96.9542 98.5042 96.9966 98.6354 97.0403C98.6354 97.2101 98.6354 97.3798 98.6354 97.5547C98.3807 97.5547 98.1261 97.5547 97.8638 97.5547C97.912 97.3055 97.912 97.3055 97.9924 97.0403C98.0772 96.9979 98.1621 96.9554 98.2496 96.9117Z" fill="#040000"/>
<path d="M50.7966 95.7543C51.1664 95.7302 51.1664 95.7302 51.5682 95.7543C51.6531 95.8816 51.738 96.0089 51.8254 96.1401C51.6132 96.1825 51.401 96.225 51.1824 96.2687C51.0551 96.099 50.9278 95.9292 50.7966 95.7543Z" fill="#AB2D2F"/>
<path d="M96.449 98.1977C96.4915 98.2826 96.5339 98.3674 96.5776 98.4549C96.6625 98.4549 96.7474 98.4549 96.8348 98.4549C96.7924 98.5822 96.75 98.7095 96.7062 98.8407C96.494 98.8407 96.2819 98.8407 96.0632 98.8407C96.1905 98.6285 96.3179 98.4163 96.449 98.1977Z" fill="#AD2D2F"/>
<path d="M52.0825 96.2687C52.6554 96.396 52.6554 96.396 53.2399 96.5259C53.1126 96.7169 53.1126 96.7169 52.9827 96.9117C52.5851 96.7335 52.4051 96.5913 52.0825 96.2687Z" fill="#2E0101"/>
<path d="M157.148 67.0768C157.554 67.2529 157.661 67.3326 157.919 67.7198C157.75 67.7622 157.58 67.8046 157.405 67.8484C157.148 67.4626 157.148 67.4626 157.148 67.0768Z" fill="#A7282A"/>
</g>
<defs>
<clipPath id="clip0_0_454">
<rect width="201" height="201" fill="white" transform="translate(0 -25)"/>
</clipPath>
</defs>
</svg>
